G04 Layer: TopSilkLayer*
G04 EasyEDA v6.4.7, 2020-09-27T19:17:12+06:30*
G04 5f9934904fa34247908da0985e5d9101,0cefe5c53dde44a4b7081b089a27013d,10*
G04 Gerber Generator version 0.2*
G04 Scale: 100 percent, Rotated: No, Reflected: No *
G04 Dimensions in millimeters *
G04 leading zeros omitted , absolute positions ,3 integer and 3 decimal *
%FSLAX33Y33*%
%MOMM*%
G90*
D02*

%ADD10C,0.381000*%
%ADD34C,0.203200*%
%ADD35C,0.202999*%
%ADD36C,0.254000*%
%ADD37C,0.200660*%
%ADD38C,0.299999*%
%ADD39C,0.599999*%
%ADD40C,0.127000*%
%ADD41C,0.152400*%

%LPD*%

%LPD*%
G36*
G01X23165Y6245D02*
G01X23109Y6254D01*
G01X23070Y6252D01*
G01X23044Y6244D01*
G01X23028Y6227D01*
G01X23012Y6195D01*
G01X23002Y6162D01*
G01X22992Y6116D01*
G01X22983Y6064D01*
G01X22976Y6010D01*
G01X22968Y5946D01*
G01X22958Y5901D01*
G01X22942Y5869D01*
G01X22919Y5843D01*
G01X22894Y5816D01*
G01X22881Y5781D01*
G01X22877Y5720D01*
G01X22879Y5615D01*
G01X22884Y5428D01*
G01X23099Y5423D01*
G01X23195Y5422D01*
G01X23267Y5425D01*
G01X23315Y5431D01*
G01X23340Y5439D01*
G01X23351Y5457D01*
G01X23359Y5492D01*
G01X23363Y5545D01*
G01X23365Y5618D01*
G01X23363Y5705D01*
G01X23358Y5759D01*
G01X23345Y5794D01*
G01X23321Y5824D01*
G01X23290Y5875D01*
G01X23263Y5947D01*
G01X23245Y6031D01*
G01X23238Y6115D01*
G01X23230Y6175D01*
G01X23205Y6219D01*
G01X23165Y6245D01*
G37*

%LPD*%
G36*
G01X22605Y6245D02*
G01X22548Y6254D01*
G01X22514Y6252D01*
G01X22489Y6246D01*
G01X22471Y6235D01*
G01X22458Y6218D01*
G01X22450Y6198D01*
G01X22442Y6168D01*
G01X22435Y6133D01*
G01X22429Y6096D01*
G01X22416Y5990D01*
G01X22403Y5923D01*
G01X22386Y5883D01*
G01X22362Y5854D01*
G01X22340Y5828D01*
G01X22327Y5791D01*
G01X22319Y5731D01*
G01X22312Y5634D01*
G01X22309Y5539D01*
G01X22310Y5481D01*
G01X22318Y5450D01*
G01X22334Y5436D01*
G01X22366Y5428D01*
G01X22420Y5422D01*
G01X22489Y5420D01*
G01X22565Y5419D01*
G01X22641Y5421D01*
G01X22707Y5426D01*
G01X22756Y5433D01*
G01X22781Y5441D01*
G01X22790Y5461D01*
G01X22797Y5499D01*
G01X22801Y5553D01*
G01X22803Y5621D01*
G01X22801Y5708D01*
G01X22795Y5763D01*
G01X22781Y5801D01*
G01X22755Y5836D01*
G01X22721Y5887D01*
G01X22696Y5949D01*
G01X22681Y6020D01*
G01X22676Y6100D01*
G01X22668Y6169D01*
G01X22645Y6217D01*
G01X22605Y6245D01*
G37*

%LPD*%
G36*
G01X22045Y6245D02*
G01X21986Y6254D01*
G01X21952Y6252D01*
G01X21926Y6246D01*
G01X21909Y6235D01*
G01X21895Y6218D01*
G01X21887Y6193D01*
G01X21877Y6149D01*
G01X21866Y6094D01*
G01X21858Y6033D01*
G01X21847Y5957D01*
G01X21834Y5906D01*
G01X21818Y5870D01*
G01X21795Y5844D01*
G01X21770Y5817D01*
G01X21757Y5783D01*
G01X21752Y5729D01*
G01X21750Y5639D01*
G01X21751Y5574D01*
G01X21754Y5516D01*
G01X21757Y5472D01*
G01X21761Y5448D01*
G01X21775Y5434D01*
G01X21810Y5425D01*
G01X21876Y5420D01*
G01X21984Y5419D01*
G01X22078Y5421D01*
G01X22149Y5425D01*
G01X22196Y5432D01*
G01X22218Y5441D01*
G01X22228Y5461D01*
G01X22234Y5499D01*
G01X22239Y5553D01*
G01X22240Y5620D01*
G01X22239Y5708D01*
G01X22232Y5764D01*
G01X22216Y5803D01*
G01X22187Y5844D01*
G01X22160Y5882D01*
G01X22143Y5922D01*
G01X22131Y5973D01*
G01X22122Y6041D01*
G01X22107Y6147D01*
G01X22083Y6212D01*
G01X22045Y6245D01*
G37*

%LPD*%
G36*
G01X23700Y6252D02*
G01X23670Y6254D01*
G01X23631Y6252D01*
G01X23606Y6244D01*
G01X23589Y6225D01*
G01X23573Y6191D01*
G01X23563Y6161D01*
G01X23554Y6126D01*
G01X23548Y6091D01*
G01X23546Y6059D01*
G01X23542Y5991D01*
G01X23528Y5930D01*
G01X23506Y5879D01*
G01X23476Y5838D01*
G01X23455Y5813D01*
G01X23444Y5776D01*
G01X23439Y5717D01*
G01X23438Y5621D01*
G01X23439Y5531D01*
G01X23443Y5474D01*
G01X23452Y5443D01*
G01X23466Y5431D01*
G01X23500Y5424D01*
G01X23554Y5420D01*
G01X23623Y5419D01*
G01X23698Y5419D01*
G01X23771Y5422D01*
G01X23835Y5427D01*
G01X23883Y5434D01*
G01X23905Y5441D01*
G01X23915Y5462D01*
G01X23922Y5500D01*
G01X23926Y5554D01*
G01X23927Y5624D01*
G01X23926Y5713D01*
G01X23920Y5767D01*
G01X23905Y5802D01*
G01X23878Y5833D01*
G01X23852Y5864D01*
G01X23834Y5903D01*
G01X23820Y5959D01*
G01X23807Y6042D01*
G01X23797Y6106D01*
G01X23785Y6163D01*
G01X23773Y6205D01*
G01X23763Y6228D01*
G01X23749Y6238D01*
G01X23727Y6246D01*
G01X23700Y6252D01*
G37*

%LPD*%
G36*
G01X21429Y6250D02*
G01X21391Y6251D01*
G01X21365Y6248D01*
G01X21348Y6238D01*
G01X21336Y6223D01*
G01X21327Y6198D01*
G01X21317Y6154D01*
G01X21306Y6098D01*
G01X21297Y6036D01*
G01X21285Y5958D01*
G01X21271Y5904D01*
G01X21255Y5868D01*
G01X21232Y5840D01*
G01X21208Y5814D01*
G01X21195Y5780D01*
G01X21189Y5724D01*
G01X21188Y5631D01*
G01X21189Y5559D01*
G01X21193Y5501D01*
G01X21200Y5462D01*
G01X21210Y5441D01*
G01X21236Y5432D01*
G01X21288Y5424D01*
G01X21356Y5420D01*
G01X21433Y5419D01*
G01X21509Y5420D01*
G01X21578Y5424D01*
G01X21629Y5432D01*
G01X21656Y5441D01*
G01X21665Y5461D01*
G01X21672Y5499D01*
G01X21676Y5553D01*
G01X21677Y5620D01*
G01X21676Y5708D01*
G01X21670Y5764D01*
G01X21654Y5803D01*
G01X21625Y5844D01*
G01X21598Y5883D01*
G01X21580Y5922D01*
G01X21568Y5970D01*
G01X21561Y6033D01*
G01X21546Y6139D01*
G01X21523Y6204D01*
G01X21486Y6238D01*
G01X21429Y6250D01*
G37*

%LPD*%
G36*
G01X24557Y5073D02*
G01X24462Y5075D01*
G01X24374Y5073D01*
G01X24319Y5069D01*
G01X24290Y5059D01*
G01X24275Y5043D01*
G01X24267Y5011D01*
G01X24263Y4956D01*
G01X24262Y4886D01*
G01X24264Y4810D01*
G01X24269Y4736D01*
G01X24275Y4671D01*
G01X24284Y4623D01*
G01X24294Y4600D01*
G01X24357Y4588D01*
G01X24464Y4586D01*
G01X24572Y4592D01*
G01X24641Y4606D01*
G01X24657Y4616D01*
G01X24674Y4628D01*
G01X24689Y4641D01*
G01X24699Y4653D01*
G01X24718Y4665D01*
G01X24753Y4677D01*
G01X24803Y4688D01*
G01X24863Y4697D01*
G01X24990Y4716D01*
G01X25057Y4738D01*
G01X25084Y4774D01*
G01X25089Y4837D01*
G01X25087Y4881D01*
G01X25082Y4911D01*
G01X25072Y4928D01*
G01X25056Y4937D01*
G01X25003Y4948D01*
G01X24907Y4963D01*
G01X24807Y4976D01*
G01X24742Y4983D01*
G01X24734Y4987D01*
G01X24720Y4997D01*
G01X24702Y5012D01*
G01X24682Y5029D01*
G01X24651Y5054D01*
G01X24614Y5068D01*
G01X24557Y5073D01*
G37*

%LPD*%
G36*
G01X20648Y5071D02*
G01X20543Y5073D01*
G01X20482Y5069D01*
G01X20447Y5056D01*
G01X20420Y5031D01*
G01X20393Y5008D01*
G01X20357Y4991D01*
G01X20305Y4978D01*
G01X20229Y4967D01*
G01X20112Y4949D01*
G01X20046Y4928D01*
G01X20016Y4894D01*
G01X20009Y4840D01*
G01X20011Y4812D01*
G01X20016Y4785D01*
G01X20024Y4763D01*
G01X20035Y4749D01*
G01X20058Y4739D01*
G01X20101Y4727D01*
G01X20158Y4715D01*
G01X20224Y4705D01*
G01X20308Y4692D01*
G01X20363Y4679D01*
G01X20398Y4662D01*
G01X20423Y4639D01*
G01X20447Y4615D01*
G01X20479Y4600D01*
G01X20530Y4592D01*
G01X20613Y4588D01*
G01X20690Y4585D01*
G01X20747Y4586D01*
G01X20788Y4594D01*
G01X20816Y4612D01*
G01X20832Y4643D01*
G01X20839Y4690D01*
G01X20841Y4756D01*
G01X20839Y4844D01*
G01X20834Y5066D01*
G01X20648Y5071D01*
G37*

%LPD*%
G36*
G01X24404Y4520D02*
G01X24371Y4520D01*
G01X24340Y4517D01*
G01X24313Y4511D01*
G01X24293Y4501D01*
G01X24275Y4482D01*
G01X24265Y4447D01*
G01X24261Y4381D01*
G01X24261Y4270D01*
G01X24263Y4188D01*
G01X24266Y4120D01*
G01X24269Y4072D01*
G01X24274Y4051D01*
G01X24325Y4039D01*
G01X24426Y4029D01*
G01X24533Y4024D01*
G01X24602Y4028D01*
G01X24623Y4037D01*
G01X24648Y4049D01*
G01X24673Y4066D01*
G01X24694Y4084D01*
G01X24723Y4106D01*
G01X24758Y4121D01*
G01X24804Y4132D01*
G01X24866Y4140D01*
G01X24917Y4146D01*
G01X24967Y4154D01*
G01X25009Y4163D01*
G01X25039Y4171D01*
G01X25065Y4184D01*
G01X25080Y4201D01*
G01X25087Y4230D01*
G01X25089Y4277D01*
G01X25086Y4335D01*
G01X25065Y4367D01*
G01X25005Y4386D01*
G01X24886Y4404D01*
G01X24813Y4416D01*
G01X24761Y4429D01*
G01X24725Y4443D01*
G01X24703Y4462D01*
G01X24682Y4480D01*
G01X24655Y4492D01*
G01X24620Y4501D01*
G01X24576Y4506D01*
G01X24532Y4510D01*
G01X24486Y4513D01*
G01X24441Y4517D01*
G01X24404Y4520D01*
G37*

%LPD*%
G36*
G01X20737Y4518D02*
G01X20662Y4519D01*
G01X20575Y4514D01*
G01X20508Y4507D01*
G01X20462Y4498D01*
G01X20432Y4484D01*
G01X20411Y4465D01*
G01X20389Y4445D01*
G01X20354Y4430D01*
G01X20300Y4418D01*
G01X20219Y4406D01*
G01X20155Y4397D01*
G01X20099Y4386D01*
G01X20056Y4375D01*
G01X20033Y4365D01*
G01X20024Y4351D01*
G01X20016Y4328D01*
G01X20011Y4299D01*
G01X20009Y4267D01*
G01X20010Y4224D01*
G01X20018Y4198D01*
G01X20035Y4182D01*
G01X20068Y4170D01*
G01X20100Y4162D01*
G01X20145Y4153D01*
G01X20197Y4146D01*
G01X20248Y4139D01*
G01X20312Y4131D01*
G01X20358Y4119D01*
G01X20393Y4102D01*
G01X20425Y4075D01*
G01X20459Y4046D01*
G01X20492Y4030D01*
G01X20540Y4024D01*
G01X20615Y4022D01*
G01X20671Y4024D01*
G01X20724Y4027D01*
G01X20768Y4034D01*
G01X20797Y4040D01*
G01X20823Y4054D01*
G01X20837Y4083D01*
G01X20842Y4149D01*
G01X20843Y4275D01*
G01X20842Y4360D01*
G01X20839Y4431D01*
G01X20835Y4480D01*
G01X20830Y4500D01*
G01X20793Y4512D01*
G01X20737Y4518D01*
G37*

%LPD*%
G36*
G01X20710Y3956D02*
G01X20649Y3957D01*
G01X20586Y3955D01*
G01X20529Y3951D01*
G01X20482Y3945D01*
G01X20452Y3935D01*
G01X20435Y3925D01*
G01X20421Y3915D01*
G01X20411Y3904D01*
G01X20407Y3897D01*
G01X20399Y3882D01*
G01X20369Y3868D01*
G01X20307Y3856D01*
G01X20205Y3840D01*
G01X20144Y3831D01*
G01X20091Y3821D01*
G01X20052Y3810D01*
G01X20031Y3801D01*
G01X20014Y3766D01*
G01X20009Y3712D01*
G01X20017Y3659D01*
G01X20036Y3623D01*
G01X20069Y3609D01*
G01X20134Y3596D01*
G01X20230Y3582D01*
G01X20355Y3570D01*
G01X20363Y3566D01*
G01X20377Y3556D01*
G01X20396Y3541D01*
G01X20416Y3523D01*
G01X20448Y3498D01*
G01X20485Y3484D01*
G01X20546Y3480D01*
G01X20650Y3482D01*
G01X20834Y3487D01*
G01X20839Y3703D01*
G01X20840Y3790D01*
G01X20838Y3862D01*
G01X20833Y3914D01*
G01X20827Y3937D01*
G01X20805Y3946D01*
G01X20764Y3952D01*
G01X20710Y3956D01*
G37*

%LPD*%
G36*
G01X24548Y3961D02*
G01X24458Y3965D01*
G01X24369Y3964D01*
G01X24304Y3955D01*
G01X24292Y3951D01*
G01X24281Y3944D01*
G01X24274Y3935D01*
G01X24271Y3926D01*
G01X24268Y3847D01*
G01X24266Y3771D01*
G01X24265Y3700D01*
G01X24266Y3637D01*
G01X24268Y3582D01*
G01X24271Y3540D01*
G01X24275Y3511D01*
G01X24280Y3498D01*
G01X24314Y3482D01*
G01X24364Y3471D01*
G01X24424Y3466D01*
G01X24488Y3467D01*
G01X24552Y3472D01*
G01X24610Y3482D01*
G01X24657Y3497D01*
G01X24687Y3516D01*
G01X24725Y3547D01*
G01X24775Y3569D01*
G01X24836Y3582D01*
G01X24907Y3587D01*
G01X24945Y3589D01*
G01X24983Y3592D01*
G01X25017Y3598D01*
G01X25042Y3605D01*
G01X25067Y3617D01*
G01X25080Y3634D01*
G01X25087Y3664D01*
G01X25089Y3711D01*
G01X25086Y3772D01*
G01X25065Y3805D01*
G01X25005Y3824D01*
G01X24886Y3843D01*
G01X24816Y3854D01*
G01X24763Y3867D01*
G01X24726Y3882D01*
G01X24704Y3899D01*
G01X24687Y3914D01*
G01X24664Y3928D01*
G01X24639Y3942D01*
G01X24613Y3951D01*
G01X24548Y3961D01*
G37*

%LPD*%
G36*
G01X20771Y3401D02*
G01X20718Y3404D01*
G01X20640Y3402D01*
G01X20553Y3398D01*
G01X20496Y3390D01*
G01X20456Y3375D01*
G01X20420Y3351D01*
G01X20385Y3327D01*
G01X20342Y3310D01*
G01X20285Y3295D01*
G01X20210Y3283D01*
G01X20149Y3273D01*
G01X20096Y3261D01*
G01X20055Y3250D01*
G01X20033Y3241D01*
G01X20024Y3227D01*
G01X20016Y3205D01*
G01X20011Y3179D01*
G01X20009Y3150D01*
G01X20011Y3113D01*
G01X20018Y3088D01*
G01X20035Y3069D01*
G01X20062Y3052D01*
G01X20090Y3041D01*
G01X20126Y3033D01*
G01X20167Y3027D01*
G01X20206Y3025D01*
G01X20278Y3021D01*
G01X20336Y3008D01*
G01X20385Y2986D01*
G01X20426Y2952D01*
G01X20452Y2932D01*
G01X20487Y2922D01*
G01X20548Y2918D01*
G01X20649Y2919D01*
G01X20834Y2925D01*
G01X20839Y3140D01*
G01X20840Y3237D01*
G01X20838Y3309D01*
G01X20832Y3357D01*
G01X20822Y3381D01*
G01X20804Y3393D01*
G01X20771Y3401D01*
G37*

%LPD*%
G36*
G01X24554Y3400D02*
G01X24450Y3405D01*
G01X24350Y3401D01*
G01X24290Y3388D01*
G01X24277Y3371D01*
G01X24268Y3334D01*
G01X24263Y3273D01*
G01X24260Y3180D01*
G01X24259Y3088D01*
G01X24259Y3020D01*
G01X24264Y2972D01*
G01X24277Y2942D01*
G01X24301Y2925D01*
G01X24338Y2917D01*
G01X24392Y2915D01*
G01X24465Y2916D01*
G01X24570Y2917D01*
G01X24631Y2923D01*
G01X24666Y2936D01*
G01X24692Y2961D01*
G01X24714Y2981D01*
G01X24742Y2997D01*
G01X24775Y3008D01*
G01X24814Y3015D01*
G01X24854Y3021D01*
G01X24902Y3028D01*
G01X24950Y3036D01*
G01X24993Y3044D01*
G01X25089Y3063D01*
G01X25089Y3151D01*
G01X25087Y3199D01*
G01X25080Y3228D01*
G01X25064Y3245D01*
G01X25035Y3257D01*
G01X25004Y3266D01*
G01X24959Y3275D01*
G01X24907Y3283D01*
G01X24852Y3289D01*
G01X24792Y3296D01*
G01X24748Y3306D01*
G01X24719Y3319D01*
G01X24701Y3335D01*
G01X24688Y3349D01*
G01X24670Y3363D01*
G01X24649Y3377D01*
G01X24628Y3387D01*
G01X24554Y3400D01*
G37*

%LPD*%
G36*
G01X24562Y2842D02*
G01X24470Y2842D01*
G01X24395Y2839D01*
G01X24341Y2834D01*
G01X24306Y2825D01*
G01X24287Y2813D01*
G01X24278Y2787D01*
G01X24271Y2739D01*
G01X24265Y2675D01*
G01X24262Y2604D01*
G01X24261Y2532D01*
G01X24262Y2467D01*
G01X24267Y2416D01*
G01X24274Y2386D01*
G01X24290Y2369D01*
G01X24320Y2359D01*
G01X24376Y2355D01*
G01X24467Y2353D01*
G01X24564Y2355D01*
G01X24622Y2360D01*
G01X24659Y2374D01*
G01X24689Y2399D01*
G01X24719Y2422D01*
G01X24756Y2438D01*
G01X24806Y2451D01*
G01X24877Y2462D01*
G01X24993Y2480D01*
G01X25057Y2503D01*
G01X25083Y2541D01*
G01X25085Y2602D01*
G01X25079Y2686D01*
G01X24979Y2710D01*
G01X24935Y2719D01*
G01X24888Y2726D01*
G01X24843Y2732D01*
G01X24807Y2734D01*
G01X24770Y2737D01*
G01X24739Y2746D01*
G01X24711Y2763D01*
G01X24683Y2789D01*
G01X24650Y2820D01*
G01X24616Y2836D01*
G01X24562Y2842D01*
G37*

%LPD*%
G36*
G01X20641Y2839D02*
G01X20550Y2842D01*
G01X20496Y2838D01*
G01X20461Y2822D01*
G01X20427Y2792D01*
G01X20394Y2765D01*
G01X20358Y2747D01*
G01X20310Y2736D01*
G01X20241Y2727D01*
G01X20128Y2713D01*
G01X20060Y2690D01*
G01X20025Y2653D01*
G01X20012Y2595D01*
G01X20014Y2538D01*
G01X20040Y2503D01*
G01X20106Y2482D01*
G01X20227Y2462D01*
G01X20303Y2450D01*
G01X20357Y2436D01*
G01X20395Y2420D01*
G01X20423Y2397D01*
G01X20452Y2373D01*
G01X20486Y2360D01*
G01X20542Y2355D01*
G01X20633Y2353D01*
G01X20705Y2355D01*
G01X20761Y2359D01*
G01X20801Y2366D01*
G01X20821Y2375D01*
G01X20832Y2402D01*
G01X20839Y2455D01*
G01X20843Y2524D01*
G01X20844Y2601D01*
G01X20842Y2678D01*
G01X20838Y2746D01*
G01X20831Y2796D01*
G01X20821Y2818D01*
G01X20800Y2824D01*
G01X20758Y2830D01*
G01X20704Y2835D01*
G01X20641Y2839D01*
G37*

%LPD*%
G36*
G01X21890Y5313D02*
G01X21816Y5316D01*
G01X21697Y5315D01*
G01X21596Y5311D01*
G01X21522Y5305D01*
G01X21476Y5297D01*
G01X21456Y5287D01*
G01X21445Y5234D01*
G01X21443Y5150D01*
G01X21450Y5067D01*
G01X21465Y5015D01*
G01X21483Y4999D01*
G01X21518Y4978D01*
G01X21563Y4955D01*
G01X21614Y4932D01*
G01X21674Y4907D01*
G01X21745Y4876D01*
G01X21817Y4844D01*
G01X21882Y4814D01*
G01X21938Y4788D01*
G01X22022Y4753D01*
G01X22041Y4748D01*
G01X22048Y4747D01*
G01X22054Y4744D01*
G01X22058Y4740D01*
G01X22061Y4735D01*
G01X22062Y4726D01*
G01X22065Y4712D01*
G01X22069Y4694D01*
G01X22072Y4676D01*
G01X22076Y4647D01*
G01X22081Y4602D01*
G01X22085Y4548D01*
G01X22089Y4490D01*
G01X22093Y4410D01*
G01X22091Y4369D01*
G01X22080Y4352D01*
G01X22058Y4349D01*
G01X22036Y4353D01*
G01X22024Y4373D01*
G01X22022Y4428D01*
G01X22025Y4531D01*
G01X22027Y4599D01*
G01X22028Y4650D01*
G01X22024Y4687D01*
G01X22012Y4715D01*
G01X21989Y4737D01*
G01X21954Y4758D01*
G01X21902Y4782D01*
G01X21832Y4813D01*
G01X21781Y4835D01*
G01X21665Y4887D01*
G01X21614Y4910D01*
G01X21569Y4931D01*
G01X21525Y4950D01*
G01X21489Y4965D01*
G01X21465Y4973D01*
G01X21442Y4985D01*
G01X21430Y5006D01*
G01X21424Y5050D01*
G01X21423Y5126D01*
G01X21422Y5182D01*
G01X21419Y5231D01*
G01X21414Y5269D01*
G01X21408Y5290D01*
G01X21392Y5301D01*
G01X21360Y5308D01*
G01X21308Y5310D01*
G01X21230Y5308D01*
G01X21142Y5303D01*
G01X21086Y5294D01*
G01X21048Y5279D01*
G01X21015Y5252D01*
G01X20985Y5220D01*
G01X20968Y5185D01*
G01X20960Y5130D01*
G01X20955Y5038D01*
G01X20953Y4964D01*
G01X20956Y4908D01*
G01X20961Y4869D01*
G01X20970Y4847D01*
G01X20989Y4835D01*
G01X21022Y4827D01*
G01X21072Y4822D01*
G01X21144Y4821D01*
G01X21296Y4821D01*
G01X21290Y4467D01*
G01X21280Y4630D01*
G01X21269Y4793D01*
G01X21126Y4799D01*
G01X21059Y4800D01*
G01X21012Y4798D01*
G01X20982Y4791D01*
G01X20967Y4781D01*
G01X20962Y4754D01*
G01X20957Y4700D01*
G01X20953Y4624D01*
G01X20952Y4537D01*
G01X20954Y4401D01*
G01X20965Y4325D01*
G01X20989Y4289D01*
G01X21034Y4274D01*
G01X21053Y4266D01*
G01X21064Y4247D01*
G01X21069Y4210D01*
G01X21071Y4146D01*
G01X21072Y4085D01*
G01X21077Y4040D01*
G01X21089Y4008D01*
G01X21112Y3987D01*
G01X21149Y3976D01*
G01X21205Y3971D01*
G01X21283Y3972D01*
G01X21386Y3976D01*
G01X21442Y3978D01*
G01X21499Y3981D01*
G01X21556Y3983D01*
G01X21611Y3986D01*
G01X21662Y3989D01*
G01X21708Y3992D01*
G01X21748Y3994D01*
G01X21779Y3996D01*
G01X21851Y4002D01*
G01X21891Y4000D01*
G01X21910Y3989D01*
G01X21919Y3969D01*
G01X21919Y3937D01*
G01X21895Y3919D01*
G01X21839Y3915D01*
G01X21744Y3922D01*
G01X21713Y3924D01*
G01X21673Y3927D01*
G01X21627Y3930D01*
G01X21575Y3932D01*
G01X21520Y3935D01*
G01X21407Y3939D01*
G01X21351Y3941D01*
G01X21247Y3943D01*
G01X21159Y3945D01*
G01X21095Y3947D01*
G01X21065Y3948D01*
G01X21055Y3957D01*
G01X21048Y3984D01*
G01X21044Y4029D01*
G01X21042Y4096D01*
G01X21041Y4168D01*
G01X21037Y4214D01*
G01X21028Y4240D01*
G01X21014Y4252D01*
G01X21002Y4255D01*
G01X20989Y4255D01*
G01X20977Y4251D01*
G01X20967Y4244D01*
G01X20960Y4217D01*
G01X20954Y4160D01*
G01X20951Y4082D01*
G01X20951Y3994D01*
G01X20953Y3907D01*
G01X20957Y3828D01*
G01X20963Y3769D01*
G01X20971Y3740D01*
G01X20995Y3730D01*
G01X21051Y3725D01*
G01X21142Y3722D01*
G01X21275Y3723D01*
G01X21387Y3724D01*
G01X21481Y3723D01*
G01X21548Y3720D01*
G01X21578Y3716D01*
G01X21560Y3711D01*
G01X21498Y3705D01*
G01X21401Y3700D01*
G01X21279Y3696D01*
G01X20961Y3687D01*
G01X20961Y3179D01*
G01X21047Y3179D01*
G01X21080Y3178D01*
G01X21108Y3176D01*
G01X21127Y3171D01*
G01X21133Y3167D01*
G01X21119Y3154D01*
G01X21086Y3144D01*
G01X21049Y3139D01*
G01X21023Y3144D01*
G01X21014Y3146D01*
G01X21002Y3145D01*
G01X20990Y3140D01*
G01X20978Y3133D01*
G01X20966Y3112D01*
G01X20958Y3067D01*
G01X20953Y2993D01*
G01X20952Y2879D01*
G01X20954Y2738D01*
G01X20964Y2658D01*
G01X20989Y2620D01*
G01X21034Y2602D01*
G01X21054Y2597D01*
G01X21060Y2594D01*
G01X21053Y2593D01*
G01X21033Y2591D01*
G01X20993Y2581D01*
G01X20968Y2552D01*
G01X20956Y2497D01*
G01X20952Y2408D01*
G01X20958Y2311D01*
G01X20978Y2237D01*
G01X21012Y2182D01*
G01X21064Y2142D01*
G01X21136Y2125D01*
G01X21243Y2118D01*
G01X21344Y2123D01*
G01X21402Y2139D01*
G01X21411Y2157D01*
G01X21418Y2191D01*
G01X21422Y2236D01*
G01X21424Y2289D01*
G01X21425Y2340D01*
G01X21428Y2385D01*
G01X21433Y2419D01*
G01X21438Y2436D01*
G01X21459Y2454D01*
G01X21491Y2466D01*
G01X21517Y2470D01*
G01X21522Y2460D01*
G01X21516Y2454D01*
G01X21508Y2449D01*
G01X21498Y2446D01*
G01X21488Y2444D01*
G01X21466Y2435D01*
G01X21452Y2408D01*
G01X21444Y2358D01*
G01X21442Y2281D01*
G01X21442Y2225D01*
G01X21444Y2183D01*
G01X21452Y2154D01*
G01X21470Y2135D01*
G01X21501Y2124D01*
G01X21547Y2119D01*
G01X21613Y2117D01*
G01X21703Y2117D01*
G01X21810Y2119D01*
G01X21889Y2123D01*
G01X21940Y2130D01*
G01X21964Y2139D01*
G01X21973Y2156D01*
G01X21980Y2185D01*
G01X21984Y2222D01*
G01X21986Y2264D01*
G01X21987Y2323D01*
G01X21995Y2359D01*
G01X22016Y2384D01*
G01X22054Y2410D01*
G01X22101Y2439D01*
G01X22144Y2463D01*
G01X22181Y2481D01*
G01X22209Y2492D01*
G01X22226Y2495D01*
G01X22228Y2491D01*
G01X22214Y2477D01*
G01X22182Y2453D01*
G01X22154Y2435D01*
G01X22127Y2421D01*
G01X22105Y2411D01*
G01X22090Y2408D01*
G01X22056Y2396D01*
G01X22028Y2365D01*
G01X22011Y2318D01*
G01X22004Y2258D01*
G01X22005Y2210D01*
G01X22007Y2175D01*
G01X22016Y2150D01*
G01X22034Y2134D01*
G01X22065Y2124D01*
G01X22112Y2119D01*
G01X22178Y2117D01*
G01X22267Y2117D01*
G01X22384Y2119D01*
G01X22461Y2123D01*
G01X22507Y2131D01*
G01X22529Y2143D01*
G01X22533Y2153D01*
G01X22537Y2174D01*
G01X22540Y2204D01*
G01X22542Y2244D01*
G01X22543Y2295D01*
G01X22543Y2426D01*
G01X22541Y2508D01*
G01X22538Y2600D01*
G01X22535Y2703D01*
G01X22531Y2817D01*
G01X22526Y2943D01*
G01X22525Y3012D01*
G01X22528Y3050D01*
G01X22538Y3066D01*
G01X22558Y3070D01*
G01X22574Y3068D01*
G01X22584Y3062D01*
G01X22589Y3050D01*
G01X22589Y3034D01*
G01X22587Y3018D01*
G01X22586Y2986D01*
G01X22584Y2940D01*
G01X22582Y2882D01*
G01X22580Y2814D01*
G01X22577Y2738D01*
G01X22575Y2656D01*
G01X22572Y2569D01*
G01X22570Y2457D01*
G01X22568Y2365D01*
G01X22568Y2290D01*
G01X22569Y2230D01*
G01X22570Y2186D01*
G01X22573Y2155D01*
G01X22578Y2136D01*
G01X22584Y2128D01*
G01X22610Y2122D01*
G01X22666Y2118D01*
G01X22744Y2116D01*
G01X22836Y2116D01*
G01X22948Y2118D01*
G01X23023Y2123D01*
G01X23065Y2132D01*
G01X23086Y2145D01*
G01X23097Y2159D01*
G01X23106Y2163D01*
G01X23116Y2159D01*
G01X23129Y2145D01*
G01X23151Y2132D01*
G01X23195Y2123D01*
G01X23273Y2119D01*
G01X23393Y2117D01*
G01X23521Y2118D01*
G01X23597Y2123D01*
G01X23636Y2133D01*
G01X23654Y2149D01*
G01X23664Y2166D01*
G01X23672Y2171D01*
G01X23682Y2165D01*
G01X23696Y2147D01*
G01X23714Y2130D01*
G01X23744Y2120D01*
G01X23795Y2118D01*
G01X23877Y2120D01*
G01X23984Y2130D01*
G01X24055Y2151D01*
G01X24103Y2192D01*
G01X24139Y2258D01*
G01X24156Y2335D01*
G01X24163Y2437D01*
G01X24158Y2532D01*
G01X24141Y2586D01*
G01X24120Y2595D01*
G01X24079Y2601D01*
G01X24019Y2606D01*
G01X23942Y2607D01*
G01X23841Y2608D01*
G01X23789Y2613D01*
G01X23768Y2625D01*
G01X23765Y2648D01*
G01X23765Y2669D01*
G01X23768Y2677D01*
G01X23774Y2673D01*
G01X23784Y2657D01*
G01X23806Y2642D01*
G01X23850Y2631D01*
G01X23908Y2625D01*
G01X23972Y2622D01*
G01X24035Y2624D01*
G01X24091Y2629D01*
G01X24133Y2640D01*
G01X24152Y2654D01*
G01X24158Y2689D01*
G01X24163Y2749D01*
G01X24164Y2823D01*
G01X24164Y2905D01*
G01X24160Y2985D01*
G01X24156Y3054D01*
G01X24150Y3104D01*
G01X24143Y3126D01*
G01X24130Y3131D01*
G01X24112Y3134D01*
G01X24091Y3137D01*
G01X24069Y3137D01*
G01X24028Y3144D01*
G01X24005Y3171D01*
G01X23994Y3226D01*
G01X23993Y3315D01*
G01X23993Y3363D01*
G01X23990Y3400D01*
G01X23983Y3426D01*
G01X23973Y3442D01*
G01X23947Y3450D01*
G01X23895Y3455D01*
G01X23815Y3455D01*
G01X23706Y3452D01*
G01X23526Y3445D01*
G01X23393Y3440D01*
G01X23301Y3437D01*
G01X23243Y3437D01*
G01X23210Y3440D01*
G01X23195Y3446D01*
G01X23192Y3456D01*
G01X23193Y3482D01*
G01X23199Y3492D01*
G01X23217Y3499D01*
G01X23254Y3501D01*
G01X23317Y3501D01*
G01X23412Y3498D01*
G01X23547Y3491D01*
G01X23728Y3483D01*
G01X24009Y3469D01*
G01X24018Y3324D01*
G01X24024Y3244D01*
G01X24032Y3200D01*
G01X24046Y3180D01*
G01X24069Y3173D01*
G01X24118Y3175D01*
G01X24147Y3209D01*
G01X24160Y3289D01*
G01X24163Y3432D01*
G01X24162Y3530D01*
G01X24158Y3603D01*
G01X24151Y3651D01*
G01X24141Y3674D01*
G01X24124Y3683D01*
G01X24095Y3690D01*
G01X24056Y3694D01*
G01X24013Y3696D01*
G01X23967Y3697D01*
G01X23936Y3701D01*
G01X23921Y3707D01*
G01X23919Y3716D01*
G01X23929Y3723D01*
G01X23947Y3726D01*
G01X23973Y3726D01*
G01X24004Y3723D01*
G01X24038Y3719D01*
G01X24069Y3719D01*
G01X24096Y3724D01*
G01X24120Y3733D01*
G01X24144Y3751D01*
G01X24157Y3784D01*
G01X24163Y3853D01*
G01X24163Y4067D01*
G01X24160Y4144D01*
G01X24156Y4201D01*
G01X24152Y4230D01*
G01X24117Y4254D01*
G01X24054Y4260D01*
G01X23986Y4249D01*
G01X23936Y4222D01*
G01X23911Y4199D01*
G01X23897Y4194D01*
G01X23895Y4208D01*
G01X23909Y4239D01*
G01X23922Y4258D01*
G01X23942Y4269D01*
G01X23973Y4275D01*
G01X24017Y4276D01*
G01X24063Y4278D01*
G01X24098Y4283D01*
G01X24124Y4296D01*
G01X24142Y4318D01*
G01X24153Y4352D01*
G01X24159Y4401D01*
G01X24163Y4468D01*
G01X24163Y4555D01*
G01X24162Y4654D01*
G01X24158Y4727D01*
G01X24151Y4776D01*
G01X24141Y4799D01*
G01X24103Y4815D01*
G01X24045Y4820D01*
G01X23985Y4814D01*
G01X23943Y4798D01*
G01X23929Y4784D01*
G01X23911Y4762D01*
G01X23892Y4736D01*
G01X23874Y4707D01*
G01X23858Y4681D01*
G01X23843Y4659D01*
G01X23832Y4645D01*
G01X23825Y4639D01*
G01X23832Y4662D01*
G01X23862Y4716D01*
G01X23901Y4778D01*
G01X23936Y4825D01*
G01X23953Y4840D01*
G01X23972Y4849D01*
G01X23995Y4851D01*
G01X24026Y4847D01*
G01X24053Y4844D01*
G01X24080Y4845D01*
G01X24105Y4849D01*
G01X24125Y4856D01*
G01X24145Y4871D01*
G01X24156Y4894D01*
G01X24162Y4931D01*
G01X24163Y4992D01*
G01X24157Y5080D01*
G01X24140Y5156D01*
G01X24112Y5218D01*
G01X24072Y5265D01*
G01X24046Y5284D01*
G01X24009Y5295D01*
G01X23953Y5300D01*
G01X23866Y5301D01*
G01X23701Y5301D01*
G01X23695Y5179D01*
G01X23691Y5112D01*
G01X23683Y5071D01*
G01X23667Y5046D01*
G01X23641Y5027D01*
G01X23615Y5011D01*
G01X23583Y4991D01*
G01X23548Y4968D01*
G01X23514Y4945D01*
G01X23458Y4911D01*
G01X23421Y4895D01*
G01X23407Y4898D01*
G01X23419Y4920D01*
G01X23429Y4931D01*
G01X23441Y4940D01*
G01X23452Y4945D01*
G01X23461Y4948D01*
G01X23497Y4962D01*
G01X23553Y4997D01*
G01X23610Y5038D01*
G01X23646Y5071D01*
G01X23652Y5088D01*
G01X23657Y5118D01*
G01X23658Y5155D01*
G01X23656Y5198D01*
G01X23646Y5301D01*
G01X23410Y5311D01*
G01X23292Y5315D01*
G01X23216Y5314D01*
G01X23169Y5308D01*
G01X23143Y5295D01*
G01X23127Y5284D01*
G01X23113Y5279D01*
G01X23100Y5282D01*
G01X23086Y5290D01*
G01X23060Y5299D01*
G01X23007Y5305D01*
G01X22927Y5308D01*
G01X22818Y5307D01*
G01X22576Y5301D01*
G01X22578Y4948D01*
G01X22578Y4875D01*
G01X22579Y4806D01*
G01X22581Y4740D01*
G01X22583Y4681D01*
G01X22585Y4628D01*
G01X22588Y4586D01*
G01X22590Y4554D01*
G01X22593Y4535D01*
G01X22601Y4467D01*
G01X22594Y4408D01*
G01X22576Y4365D01*
G01X22546Y4349D01*
G01X22526Y4352D01*
G01X22516Y4368D01*
G01X22515Y4408D01*
G01X22521Y4481D01*
G01X22526Y4559D01*
G01X22531Y4642D01*
G01X22535Y4728D01*
G01X22539Y4816D01*
G01X22541Y4902D01*
G01X22543Y4985D01*
G01X22543Y5131D01*
G01X22540Y5190D01*
G01X22538Y5237D01*
G01X22534Y5269D01*
G01X22529Y5285D01*
G01X22498Y5297D01*
G01X22436Y5307D01*
G01X22355Y5312D01*
G01X22263Y5313D01*
G01X22173Y5311D01*
G01X22093Y5305D01*
G01X22036Y5295D01*
G01X22011Y5282D01*
G01X22004Y5268D01*
G01X21995Y5264D01*
G01X21982Y5271D01*
G01X21961Y5287D01*
G01X21933Y5304D01*
G01X21890Y5313D01*
G37*

%LPC*%
G36*
G01X22826Y3076D02*
G01X22806Y3079D01*
G01X22786Y3075D01*
G01X22774Y3061D01*
G01X22765Y3032D01*
G01X22757Y2984D01*
G01X22754Y2942D01*
G01X22754Y2901D01*
G01X22758Y2865D01*
G01X22765Y2838D01*
G01X22773Y2805D01*
G01X22779Y2754D01*
G01X22783Y2691D01*
G01X22784Y2625D01*
G01X22784Y2565D01*
G01X22786Y2520D01*
G01X22791Y2487D01*
G01X22804Y2462D01*
G01X22826Y2441D01*
G01X22860Y2422D01*
G01X22909Y2399D01*
G01X22975Y2371D01*
G01X23035Y2344D01*
G01X23069Y2322D01*
G01X23086Y2294D01*
G01X23095Y2253D01*
G01X23106Y2181D01*
G01X23108Y2257D01*
G01X23108Y2304D01*
G01X23089Y2336D01*
G01X23024Y2373D01*
G01X22889Y2435D01*
G01X22841Y2467D01*
G01X22813Y2515D01*
G01X22804Y2587D01*
G01X22810Y2692D01*
G01X22815Y2744D01*
G01X22820Y2808D01*
G01X22826Y2875D01*
G01X22832Y2938D01*
G01X22837Y3017D01*
G01X22836Y3059D01*
G01X22826Y3076D01*
G37*
G36*
G01X23492Y2495D02*
G01X23410Y2537D01*
G01X23465Y2491D01*
G01X23487Y2472D01*
G01X23507Y2458D01*
G01X23523Y2448D01*
G01X23534Y2444D01*
G01X23541Y2442D01*
G01X23550Y2438D01*
G01X23560Y2432D01*
G01X23570Y2425D01*
G01X23581Y2416D01*
G01X23596Y2405D01*
G01X23611Y2393D01*
G01X23627Y2383D01*
G01X23641Y2367D01*
G01X23655Y2343D01*
G01X23666Y2313D01*
G01X23674Y2279D01*
G01X23687Y2199D01*
G01X23689Y2282D01*
G01X23684Y2339D01*
G01X23667Y2385D01*
G01X23640Y2415D01*
G01X23605Y2426D01*
G01X23597Y2427D01*
G01X23589Y2430D01*
G01X23583Y2434D01*
G01X23580Y2439D01*
G01X23571Y2448D01*
G01X23551Y2461D01*
G01X23524Y2478D01*
G01X23492Y2495D01*
G37*
G36*
G01X21655Y2532D02*
G01X21644Y2534D01*
G01X21623Y2526D01*
G01X21595Y2509D01*
G01X21576Y2494D01*
G01X21570Y2487D01*
G01X21578Y2487D01*
G01X21601Y2492D01*
G01X21633Y2504D01*
G01X21645Y2512D01*
G01X21652Y2519D01*
G01X21655Y2532D01*
G37*
G36*
G01X22337Y3074D02*
G01X22315Y3079D01*
G01X22300Y3078D01*
G01X22287Y3075D01*
G01X22278Y3071D01*
G01X22274Y3065D01*
G01X22272Y3007D01*
G01X22277Y2928D01*
G01X22286Y2854D01*
G01X22296Y2817D01*
G01X22311Y2766D01*
G01X22313Y2679D01*
G01X22304Y2593D01*
G01X22284Y2541D01*
G01X22274Y2529D01*
G01X22268Y2518D01*
G01X22265Y2508D01*
G01X22267Y2502D01*
G01X22273Y2500D01*
G01X22281Y2502D01*
G01X22292Y2509D01*
G01X22302Y2518D01*
G01X22314Y2545D01*
G01X22325Y2600D01*
G01X22333Y2688D01*
G01X22340Y2811D01*
G01X22347Y2965D01*
G01X22347Y3044D01*
G01X22337Y3074D01*
G37*
G36*
G01X23253Y2635D02*
G01X23238Y2638D01*
G01X23260Y2617D01*
G01X23311Y2582D01*
G01X23365Y2550D01*
G01X23396Y2535D01*
G01X23399Y2538D01*
G01X23395Y2544D01*
G01X23387Y2553D01*
G01X23374Y2564D01*
G01X23334Y2591D01*
G01X23290Y2617D01*
G01X23253Y2635D01*
G37*
G36*
G01X22080Y3075D02*
G01X22059Y3079D01*
G01X22040Y3075D01*
G01X22028Y3061D01*
G01X22023Y3028D01*
G01X22022Y2968D01*
G01X22024Y2917D01*
G01X22030Y2872D01*
G01X22041Y2834D01*
G01X22054Y2804D01*
G01X22072Y2772D01*
G01X22075Y2751D01*
G01X22062Y2732D01*
G01X22031Y2706D01*
G01X22008Y2689D01*
G01X21985Y2675D01*
G01X21964Y2665D01*
G01X21949Y2662D01*
G01X21936Y2660D01*
G01X21924Y2657D01*
G01X21913Y2652D01*
G01X21888Y2637D01*
G01X21860Y2623D01*
G01X21822Y2606D01*
G01X21778Y2589D01*
G01X21738Y2572D01*
G01X21708Y2557D01*
G01X21691Y2546D01*
G01X21690Y2540D01*
G01X21705Y2541D01*
G01X21733Y2548D01*
G01X21768Y2561D01*
G01X21808Y2578D01*
G01X21853Y2598D01*
G01X21904Y2620D01*
G01X21954Y2641D01*
G01X21996Y2658D01*
G01X22086Y2694D01*
G01X22091Y2886D01*
G01X22093Y2994D01*
G01X22090Y3052D01*
G01X22080Y3075D01*
G37*
G36*
G01X21276Y2840D02*
G01X21275Y2843D01*
G01X21251Y2818D01*
G01X21209Y2763D01*
G01X21169Y2704D01*
G01X21152Y2669D01*
G01X21149Y2661D01*
G01X21142Y2650D01*
G01X21133Y2637D01*
G01X21122Y2622D01*
G01X21111Y2610D01*
G01X21105Y2599D01*
G01X21104Y2592D01*
G01X21108Y2589D01*
G01X21119Y2596D01*
G01X21135Y2615D01*
G01X21156Y2642D01*
G01X21178Y2675D01*
G01X21200Y2712D01*
G01X21223Y2748D01*
G01X21243Y2780D01*
G01X21257Y2802D01*
G01X21266Y2818D01*
G01X21273Y2831D01*
G01X21276Y2840D01*
G37*
G36*
G01X23041Y3076D02*
G01X23017Y3077D01*
G01X23006Y3064D01*
G01X23004Y3025D01*
G01X23008Y2949D01*
G01X23020Y2818D01*
G01X23034Y2713D01*
G01X23048Y2644D01*
G01X23061Y2621D01*
G01X23070Y2623D01*
G01X23085Y2625D01*
G01X23104Y2626D01*
G01X23125Y2627D01*
G01X23174Y2630D01*
G01X23120Y2642D01*
G01X23090Y2650D01*
G01X23074Y2663D01*
G01X23069Y2689D01*
G01X23069Y2735D01*
G01X23071Y2776D01*
G01X23074Y2830D01*
G01X23076Y2887D01*
G01X23078Y2943D01*
G01X23080Y3014D01*
G01X23077Y3053D01*
G01X23065Y3070D01*
G01X23041Y3076D01*
G37*
G36*
G01X23331Y3253D02*
G01X23249Y3258D01*
G01X23204Y3257D01*
G01X23187Y3248D01*
G01X23187Y3230D01*
G01X23198Y3212D01*
G01X23236Y3202D01*
G01X23321Y3198D01*
G01X23474Y3197D01*
G01X23755Y3197D01*
G01X23775Y2707D01*
G01X23778Y2964D01*
G01X23782Y3222D01*
G01X23633Y3232D01*
G01X23563Y3236D01*
G01X23402Y3248D01*
G01X23331Y3253D01*
G37*
G36*
G01X21330Y2934D02*
G01X21325Y2939D01*
G01X21318Y2934D01*
G01X21309Y2923D01*
G01X21299Y2904D01*
G01X21287Y2876D01*
G01X21284Y2865D01*
G01X21290Y2867D01*
G01X21307Y2882D01*
G01X21318Y2896D01*
G01X21326Y2910D01*
G01X21330Y2923D01*
G01X21330Y2934D01*
G37*
G36*
G01X21543Y3221D02*
G01X21530Y3222D01*
G01X21512Y3215D01*
G01X21487Y3192D01*
G01X21458Y3155D01*
G01X21425Y3107D01*
G01X21396Y3060D01*
G01X21373Y3020D01*
G01X21357Y2991D01*
G01X21351Y2977D01*
G01X21362Y2978D01*
G01X21390Y3011D01*
G01X21426Y3063D01*
G01X21461Y3124D01*
G01X21480Y3156D01*
G01X21500Y3183D01*
G01X21518Y3203D01*
G01X21532Y3213D01*
G01X21545Y3216D01*
G01X21548Y3219D01*
G01X21543Y3221D01*
G37*
G36*
G01X21857Y3259D02*
G01X21791Y3260D01*
G01X21741Y3259D01*
G01X21697Y3255D01*
G01X21662Y3249D01*
G01X21641Y3242D01*
G01X21626Y3221D01*
G01X21648Y3203D01*
G01X21704Y3192D01*
G01X21791Y3188D01*
G01X21857Y3189D01*
G01X21894Y3194D01*
G01X21910Y3204D01*
G01X21914Y3224D01*
G01X21910Y3244D01*
G01X21894Y3255D01*
G01X21857Y3259D01*
G37*
G36*
G01X21869Y3506D02*
G01X21794Y3514D01*
G01X21714Y3512D01*
G01X21660Y3496D01*
G01X21635Y3489D01*
G01X21590Y3484D01*
G01X21529Y3480D01*
G01X21459Y3478D01*
G01X21286Y3478D01*
G01X21225Y3378D01*
G01X21202Y3338D01*
G01X21186Y3304D01*
G01X21175Y3279D01*
G01X21175Y3267D01*
G01X21184Y3267D01*
G01X21199Y3286D01*
G01X21223Y3327D01*
G01X21260Y3396D01*
G01X21288Y3451D01*
G01X21469Y3447D01*
G01X21549Y3445D01*
G01X21634Y3441D01*
G01X21712Y3437D01*
G01X21775Y3432D01*
G01X21859Y3429D01*
G01X21911Y3436D01*
G01X21929Y3455D01*
G01X21914Y3486D01*
G01X21869Y3506D01*
G37*
G36*
G01X21857Y3749D02*
G01X21791Y3750D01*
G01X21741Y3748D01*
G01X21694Y3743D01*
G01X21657Y3737D01*
G01X21633Y3729D01*
G01X21613Y3717D01*
G01X21607Y3709D01*
G01X21613Y3702D01*
G01X21633Y3694D01*
G01X21657Y3689D01*
G01X21694Y3684D01*
G01X21741Y3680D01*
G01X21791Y3679D01*
G01X21857Y3679D01*
G01X21894Y3684D01*
G01X21910Y3695D01*
G01X21914Y3714D01*
G01X21910Y3733D01*
G01X21894Y3744D01*
G01X21857Y3749D01*
G37*
G36*
G01X23345Y3742D02*
G01X23281Y3747D01*
G01X23235Y3746D01*
G01X23206Y3741D01*
G01X23193Y3732D01*
G01X23186Y3717D01*
G01X23190Y3704D01*
G01X23206Y3695D01*
G01X23237Y3689D01*
G01X23285Y3686D01*
G01X23352Y3685D01*
G01X23440Y3687D01*
G01X23552Y3690D01*
G01X23683Y3695D01*
G01X23790Y3700D01*
G01X23860Y3705D01*
G01X23885Y3708D01*
G01X23866Y3712D01*
G01X23822Y3716D01*
G01X23757Y3720D01*
G01X23680Y3723D01*
G01X23593Y3727D01*
G01X23500Y3731D01*
G01X23414Y3737D01*
G01X23345Y3742D01*
G37*
G36*
G01X23883Y4150D02*
G01X23885Y4161D01*
G01X23879Y4156D01*
G01X23866Y4139D01*
G01X23849Y4112D01*
G01X23829Y4077D01*
G01X23788Y4014D01*
G01X23741Y3980D01*
G01X23671Y3970D01*
G01X23560Y3977D01*
G01X23500Y3982D01*
G01X23366Y3990D01*
G01X23311Y3992D01*
G01X23247Y3993D01*
G01X23212Y3989D01*
G01X23196Y3978D01*
G01X23193Y3959D01*
G01X23192Y3946D01*
G01X23196Y3937D01*
G01X23208Y3930D01*
G01X23236Y3927D01*
G01X23284Y3926D01*
G01X23359Y3927D01*
G01X23465Y3930D01*
G01X23609Y3935D01*
G01X23771Y3941D01*
G01X23832Y4048D01*
G01X23855Y4090D01*
G01X23872Y4125D01*
G01X23883Y4150D01*
G37*
G36*
G01X23722Y4473D02*
G01X23720Y4476D01*
G01X23697Y4451D01*
G01X23657Y4396D01*
G01X23618Y4338D01*
G01X23601Y4304D01*
G01X23598Y4297D01*
G01X23591Y4286D01*
G01X23581Y4273D01*
G01X23568Y4258D01*
G01X23546Y4240D01*
G01X23515Y4231D01*
G01X23462Y4231D01*
G01X23373Y4238D01*
G01X23271Y4245D01*
G01X23212Y4241D01*
G01X23187Y4226D01*
G01X23190Y4196D01*
G01X23201Y4182D01*
G01X23225Y4174D01*
G01X23265Y4169D01*
G01X23327Y4168D01*
G01X23377Y4169D01*
G01X23420Y4173D01*
G01X23450Y4179D01*
G01X23465Y4186D01*
G01X23473Y4193D01*
G01X23488Y4199D01*
G01X23508Y4203D01*
G01X23550Y4205D01*
G01X23567Y4210D01*
G01X23578Y4216D01*
G01X23582Y4224D01*
G01X23587Y4237D01*
G01X23598Y4259D01*
G01X23614Y4288D01*
G01X23634Y4319D01*
G01X23656Y4351D01*
G01X23677Y4384D01*
G01X23695Y4414D01*
G01X23707Y4435D01*
G01X23715Y4451D01*
G01X23720Y4464D01*
G01X23722Y4473D01*
G37*
G36*
G01X21288Y4364D02*
G01X21286Y4373D01*
G01X21285Y4354D01*
G01X21286Y4304D01*
G01X21288Y4195D01*
G01X21451Y4192D01*
G01X21525Y4190D01*
G01X21608Y4186D01*
G01X21689Y4181D01*
G01X21757Y4176D01*
G01X21826Y4171D01*
G01X21873Y4171D01*
G01X21900Y4177D01*
G01X21915Y4187D01*
G01X21919Y4199D01*
G01X21920Y4210D01*
G01X21918Y4222D01*
G01X21913Y4232D01*
G01X21905Y4238D01*
G01X21892Y4243D01*
G01X21871Y4246D01*
G01X21838Y4246D01*
G01X21792Y4245D01*
G01X21728Y4242D01*
G01X21643Y4237D01*
G01X21535Y4230D01*
G01X21473Y4227D01*
G01X21415Y4226D01*
G01X21370Y4227D01*
G01X21341Y4230D01*
G01X21319Y4238D01*
G01X21305Y4255D01*
G01X21297Y4282D01*
G01X21291Y4327D01*
G01X21288Y4364D01*
G37*
G36*
G01X22877Y5006D02*
G01X22882Y5018D01*
G01X22864Y5015D01*
G01X22825Y4998D01*
G01X22804Y4984D01*
G01X22791Y4963D01*
G01X22786Y4927D01*
G01X22784Y4868D01*
G01X22783Y4809D01*
G01X22781Y4730D01*
G01X22777Y4641D01*
G01X22773Y4553D01*
G01X22767Y4436D01*
G01X22768Y4375D01*
G01X22778Y4353D01*
G01X22801Y4349D01*
G01X22816Y4348D01*
G01X22826Y4350D01*
G01X22833Y4360D01*
G01X22836Y4386D01*
G01X22835Y4434D01*
G01X22831Y4511D01*
G01X22823Y4624D01*
G01X22812Y4778D01*
G01X22807Y4874D01*
G01X22809Y4928D01*
G01X22822Y4958D01*
G01X22849Y4982D01*
G01X22877Y5006D01*
G37*
G36*
G01X22003Y5148D02*
G01X21991Y5229D01*
G01X21986Y5064D01*
G01X22109Y4995D01*
G01X22214Y4932D01*
G01X22269Y4887D01*
G01X22291Y4839D01*
G01X22294Y4768D01*
G01X22292Y4718D01*
G01X22289Y4657D01*
G01X22283Y4592D01*
G01X22277Y4532D01*
G01X22269Y4442D01*
G01X22270Y4386D01*
G01X22282Y4357D01*
G01X22304Y4349D01*
G01X22330Y4358D01*
G01X22342Y4397D01*
G01X22344Y4484D01*
G01X22338Y4639D01*
G01X22326Y4894D01*
G01X22169Y4980D01*
G01X22080Y5031D01*
G01X22032Y5066D01*
G01X22011Y5099D01*
G01X22003Y5148D01*
G37*
G36*
G01X23370Y4871D02*
G01X23365Y4874D01*
G01X23352Y4872D01*
G01X23335Y4866D01*
G01X23318Y4858D01*
G01X23302Y4847D01*
G01X23280Y4836D01*
G01X23247Y4828D01*
G01X23204Y4822D01*
G01X23155Y4821D01*
G01X23042Y4821D01*
G01X23030Y4716D01*
G01X23025Y4665D01*
G01X23020Y4604D01*
G01X23014Y4540D01*
G01X23009Y4481D01*
G01X23005Y4408D01*
G01X23006Y4369D01*
G01X23015Y4353D01*
G01X23035Y4349D01*
G01X23050Y4352D01*
G01X23064Y4358D01*
G01X23075Y4367D01*
G01X23082Y4378D01*
G01X23091Y4429D01*
G01X23092Y4499D01*
G01X23087Y4561D01*
G01X23074Y4594D01*
G01X23068Y4605D01*
G01X23062Y4626D01*
G01X23058Y4654D01*
G01X23057Y4686D01*
G01X23058Y4729D01*
G01X23065Y4757D01*
G01X23080Y4774D01*
G01X23106Y4786D01*
G01X23129Y4793D01*
G01X23155Y4797D01*
G01X23180Y4798D01*
G01X23202Y4796D01*
G01X23226Y4796D01*
G01X23254Y4801D01*
G01X23286Y4813D01*
G01X23320Y4831D01*
G01X23346Y4848D01*
G01X23363Y4862D01*
G01X23370Y4871D01*
G37*
G36*
G01X23800Y4587D02*
G01X23797Y4602D01*
G01X23788Y4599D01*
G01X23773Y4580D01*
G01X23755Y4544D01*
G01X23726Y4485D01*
G01X23763Y4528D01*
G01X23777Y4546D01*
G01X23790Y4563D01*
G01X23797Y4577D01*
G01X23800Y4587D01*
G37*
G36*
G01X23118Y5216D02*
G01X23111Y5220D01*
G01X23104Y5216D01*
G01X23098Y5203D01*
G01X23094Y5186D01*
G01X23093Y5164D01*
G01X23090Y5134D01*
G01X23078Y5112D01*
G01X23050Y5093D01*
G01X23002Y5071D01*
G01X22967Y5056D01*
G01X22940Y5042D01*
G01X22923Y5031D01*
G01X22919Y5025D01*
G01X22930Y5025D01*
G01X22954Y5033D01*
G01X22988Y5045D01*
G01X23028Y5063D01*
G01X23082Y5089D01*
G01X23112Y5110D01*
G01X23126Y5133D01*
G01X23129Y5164D01*
G01X23128Y5186D01*
G01X23124Y5203D01*
G01X23118Y5216D01*
G37*

%LPD*%
G36*
G01X23131Y2007D02*
G01X23055Y2008D01*
G01X22985Y2007D01*
G01X22930Y2003D01*
G01X22898Y1996D01*
G01X22887Y1982D01*
G01X22880Y1948D01*
G01X22876Y1891D01*
G01X22875Y1810D01*
G01X22876Y1712D01*
G01X22882Y1653D01*
G01X22896Y1615D01*
G01X22920Y1584D01*
G01X22938Y1564D01*
G01X22952Y1546D01*
G01X22963Y1531D01*
G01X22966Y1522D01*
G01X22974Y1444D01*
G01X22989Y1347D01*
G01X23006Y1259D01*
G01X23021Y1209D01*
G01X23034Y1191D01*
G01X23052Y1181D01*
G01X23078Y1177D01*
G01X23116Y1178D01*
G01X23173Y1190D01*
G01X23210Y1224D01*
G01X23233Y1294D01*
G01X23252Y1411D01*
G01X23262Y1481D01*
G01X23275Y1531D01*
G01X23292Y1566D01*
G01X23317Y1596D01*
G01X23343Y1627D01*
G01X23358Y1661D01*
G01X23364Y1715D01*
G01X23365Y1804D01*
G01X23363Y1874D01*
G01X23359Y1928D01*
G01X23352Y1967D01*
G01X23343Y1987D01*
G01X23320Y1994D01*
G01X23271Y2001D01*
G01X23206Y2005D01*
G01X23131Y2007D01*
G37*

%LPD*%
G36*
G01X21511Y2008D02*
G01X21426Y2009D01*
G01X21342Y2008D01*
G01X21271Y2005D01*
G01X21222Y2001D01*
G01X21200Y1996D01*
G01X21195Y1978D01*
G01X21191Y1936D01*
G01X21189Y1877D01*
G01X21188Y1807D01*
G01X21189Y1708D01*
G01X21195Y1649D01*
G01X21208Y1614D01*
G01X21233Y1587D01*
G01X21256Y1560D01*
G01X21273Y1525D01*
G01X21286Y1474D01*
G01X21296Y1401D01*
G01X21313Y1286D01*
G01X21329Y1224D01*
G01X21355Y1196D01*
G01X21398Y1184D01*
G01X21474Y1177D01*
G01X21519Y1200D01*
G01X21544Y1269D01*
G01X21562Y1398D01*
G01X21570Y1461D01*
G01X21581Y1508D01*
G01X21598Y1545D01*
G01X21622Y1578D01*
G01X21646Y1613D01*
G01X21661Y1651D01*
G01X21670Y1704D01*
G01X21675Y1783D01*
G01X21677Y1857D01*
G01X21676Y1913D01*
G01X21668Y1953D01*
G01X21651Y1980D01*
G01X21620Y1996D01*
G01X21575Y2005D01*
G01X21511Y2008D01*
G37*

%LPD*%
G36*
G01X23759Y2008D02*
G01X23676Y2009D01*
G01X23592Y2008D01*
G01X23521Y2005D01*
G01X23471Y2001D01*
G01X23450Y1996D01*
G01X23445Y1978D01*
G01X23441Y1935D01*
G01X23439Y1876D01*
G01X23438Y1805D01*
G01X23439Y1706D01*
G01X23444Y1647D01*
G01X23457Y1612D01*
G01X23482Y1585D01*
G01X23505Y1558D01*
G01X23521Y1520D01*
G01X23535Y1465D01*
G01X23547Y1382D01*
G01X23557Y1317D01*
G01X23568Y1260D01*
G01X23578Y1218D01*
G01X23587Y1197D01*
G01X23622Y1180D01*
G01X23675Y1175D01*
G01X23728Y1182D01*
G01X23764Y1201D01*
G01X23774Y1223D01*
G01X23785Y1264D01*
G01X23795Y1317D01*
G01X23803Y1377D01*
G01X23813Y1446D01*
G01X23824Y1499D01*
G01X23837Y1538D01*
G01X23853Y1564D01*
G01X23890Y1611D01*
G01X23913Y1662D01*
G01X23924Y1724D01*
G01X23927Y1809D01*
G01X23927Y1875D01*
G01X23924Y1925D01*
G01X23914Y1960D01*
G01X23896Y1984D01*
G01X23866Y1998D01*
G01X23822Y2006D01*
G01X23759Y2008D01*
G37*

%LPD*%
G36*
G01X22633Y2008D02*
G01X22549Y2009D01*
G01X22435Y2008D01*
G01X22367Y2003D01*
G01X22332Y1993D01*
G01X22316Y1977D01*
G01X22311Y1951D01*
G01X22309Y1905D01*
G01X22309Y1845D01*
G01X22312Y1777D01*
G01X22319Y1690D01*
G01X22328Y1634D01*
G01X22341Y1602D01*
G01X22362Y1582D01*
G01X22385Y1560D01*
G01X22401Y1520D01*
G01X22416Y1447D01*
G01X22432Y1323D01*
G01X22445Y1252D01*
G01X22469Y1206D01*
G01X22505Y1182D01*
G01X22557Y1174D01*
G01X22606Y1181D01*
G01X22639Y1207D01*
G01X22661Y1257D01*
G01X22676Y1341D01*
G01X22691Y1439D01*
G01X22708Y1505D01*
G01X22729Y1554D01*
G01X22760Y1597D01*
G01X22782Y1629D01*
G01X22795Y1665D01*
G01X22801Y1716D01*
G01X22803Y1793D01*
G01X22802Y1865D01*
G01X22799Y1919D01*
G01X22790Y1957D01*
G01X22772Y1983D01*
G01X22742Y1998D01*
G01X22697Y2006D01*
G01X22633Y2008D01*
G37*

%LPD*%
G36*
G01X22139Y2005D02*
G01X22079Y2008D01*
G01X21999Y2007D01*
G01X21918Y2006D01*
G01X21849Y2004D01*
G01X21798Y2000D01*
G01X21773Y1996D01*
G01X21763Y1982D01*
G01X21756Y1948D01*
G01X21752Y1890D01*
G01X21750Y1808D01*
G01X21752Y1710D01*
G01X21757Y1650D01*
G01X21770Y1612D01*
G01X21794Y1582D01*
G01X21815Y1554D01*
G01X21831Y1521D01*
G01X21842Y1481D01*
G01X21851Y1431D01*
G01X21860Y1354D01*
G01X21870Y1295D01*
G01X21882Y1250D01*
G01X21897Y1217D01*
G01X21917Y1195D01*
G01X21941Y1182D01*
G01X21973Y1176D01*
G01X22013Y1174D01*
G01X22058Y1183D01*
G01X22088Y1217D01*
G01X22109Y1285D01*
G01X22123Y1397D01*
G01X22132Y1459D01*
G01X22144Y1508D01*
G01X22162Y1547D01*
G01X22188Y1585D01*
G01X22216Y1625D01*
G01X22232Y1663D01*
G01X22239Y1715D01*
G01X22240Y1795D01*
G01X22240Y1866D01*
G01X22237Y1919D01*
G01X22228Y1957D01*
G01X22210Y1982D01*
G01X22182Y1997D01*
G01X22139Y2005D01*
G37*

%LPD*%
G54D10*
G01X53721Y4015D02*
G01X66167Y4015D01*
G01X61887Y6350D02*
G01X61887Y1778D01*
G01X58026Y6350D02*
G01X58026Y1778D01*
G01X53848Y6350D02*
G01X66167Y6350D01*
G01X66167Y1778D01*
G01X53721Y1778D01*
G01X53721Y6350D01*
G54D34*
G01X36449Y42545D02*
G01X38989Y42545D01*
G01X38989Y22225D01*
G01X36449Y22225D01*
G01X36449Y24130D01*
G54D35*
G01X36449Y42545D02*
G01X36449Y24130D01*
G54D34*
G01X71120Y12319D02*
G01X71120Y10414D01*
G01X73660Y10414D01*
G01X73660Y25654D01*
G01X71120Y25654D01*
G54D35*
G01X71120Y25654D02*
G01X71120Y12319D01*
G54D34*
G01X70993Y29083D02*
G01X70993Y27178D01*
G01X73533Y27178D01*
G01X73533Y42418D01*
G01X70993Y42418D01*
G54D35*
G01X70993Y42418D02*
G01X70993Y29083D01*
G54D36*
G01X62838Y46300D02*
G01X47397Y46300D01*
G01X47397Y46300D02*
G01X47397Y56300D01*
G01X47397Y56300D02*
G01X62838Y56300D01*
G01X62838Y56300D02*
G01X62838Y46300D01*
G01X62838Y47753D02*
G01X47397Y47753D01*
G01X62838Y48515D02*
G01X47397Y48515D01*
G01X62838Y54357D02*
G01X47397Y54357D01*
G01X62838Y55627D02*
G01X47397Y55627D01*
G01X6477Y40386D02*
G01X6477Y42926D01*
G01X2540Y43180D02*
G01X3302Y43180D01*
G01X2921Y42799D02*
G01X2921Y43561D01*
G54D34*
G01X41656Y22225D02*
G01X39116Y22225D01*
G01X39116Y42545D01*
G01X41656Y42545D01*
G01X41656Y40640D01*
G54D35*
G01X41656Y22225D02*
G01X41656Y40640D01*
G54D36*
G01X13512Y31369D02*
G01X13512Y28067D01*
G01X13512Y28067D02*
G01X4521Y28067D01*
G01X4521Y28067D02*
G01X4521Y31369D01*
G01X4521Y31369D02*
G01X13512Y31369D01*
G01X43144Y46999D02*
G01X31785Y46999D01*
G01X43144Y46999D02*
G01X43144Y55399D01*
G01X31785Y55399D02*
G01X43144Y55399D01*
G01X31785Y55399D02*
G01X31785Y46999D01*
G01X40005Y55372D02*
G01X40005Y55880D01*
G01X34925Y55880D01*
G01X34925Y55372D01*
G01X15176Y-5143D02*
G01X7048Y-5143D01*
G01X7048Y8826D01*
G01X15227Y3441D02*
G01X15227Y-5143D01*
G01X15125Y-5143D01*
G01X15227Y7962D02*
G01X15227Y8851D01*
G01X12433Y8851D01*
G01X8013Y8851D02*
G01X7048Y8851D01*
G54D34*
G01X68453Y12319D02*
G01X68453Y10414D01*
G01X70993Y10414D01*
G01X70993Y25654D01*
G01X68453Y25654D01*
G54D35*
G01X68453Y25654D02*
G01X68453Y12319D01*
G54D36*
G01X18542Y31242D02*
G01X28956Y31242D01*
G01X28956Y47117D02*
G01X18542Y47117D01*
G01X28956Y31242D02*
G01X28956Y43688D01*
G01X28956Y43688D02*
G01X28067Y43688D01*
G01X28067Y43688D02*
G01X28067Y45212D01*
G01X28067Y45212D02*
G01X28956Y45212D01*
G01X28956Y45212D02*
G01X28956Y47117D01*
G01X18542Y31242D02*
G01X18542Y43688D01*
G01X18542Y43688D02*
G01X19431Y43688D01*
G01X19431Y43688D02*
G01X19431Y45212D01*
G01X19431Y45212D02*
G01X18542Y45212D01*
G01X18542Y45212D02*
G01X18542Y47117D01*
G01X19177Y31877D02*
G01X28321Y31877D01*
G01X28321Y40132D02*
G01X28321Y31877D01*
G01X28321Y40132D02*
G01X19177Y40132D01*
G01X19177Y31877D02*
G01X19177Y40132D01*
G54D37*
G01X2052Y15483D02*
G01X2052Y20132D01*
G01X4401Y20132D01*
G01X4401Y15483D01*
G01X2052Y15483D01*
G01X3228Y15483D02*
G01X3228Y14213D01*
G01X3228Y21402D02*
G01X3228Y20132D01*
G01X4401Y18862D02*
G01X2052Y18862D01*
G54D36*
G01X60452Y42464D02*
G01X62467Y42464D01*
G01X62467Y7065D01*
G01X57166Y7065D01*
G01X57166Y42464D01*
G01X59182Y42464D01*
G54D34*
G01X68453Y29083D02*
G01X68453Y27178D01*
G01X70993Y27178D01*
G01X70993Y42418D01*
G01X68453Y42418D01*
G54D35*
G01X68453Y42418D02*
G01X68453Y29083D01*
G54D36*
G01X15113Y23241D02*
G01X15113Y22225D01*
G01X15875Y22733D02*
G01X14351Y22733D01*
G01X47095Y15542D02*
G01X47095Y21741D01*
G01X46395Y15291D02*
G01X46395Y21792D01*
G01X50694Y21741D02*
G01X50694Y15342D01*
G01X51394Y21792D02*
G01X51394Y15291D01*
G01X49530Y18796D02*
G01X48260Y18796D01*
G01X48260Y18796D02*
G01X48260Y18288D01*
G01X48260Y18288D02*
G01X49530Y18288D01*
G01X49530Y18288D02*
G01X49530Y18796D01*
G01X49530Y19177D02*
G01X48895Y19177D01*
G01X48895Y19177D02*
G01X48260Y19177D01*
G01X48895Y19177D02*
G01X48895Y19558D01*
G01X49530Y17907D02*
G01X48895Y17907D01*
G01X48895Y17907D02*
G01X48260Y17907D01*
G01X48895Y17907D02*
G01X48895Y17526D01*
G54D37*
G01X38991Y20952D02*
G01X38991Y15872D01*
G01X41531Y15872D01*
G01X41531Y20952D01*
G01X38991Y20952D01*
G01X41526Y9781D02*
G01X41526Y14861D01*
G01X38986Y14861D01*
G01X38986Y9781D01*
G01X41526Y9781D01*
G54D36*
G01X52538Y42274D02*
G01X52538Y40275D01*
G01X49038Y42474D02*
G01X47838Y42474D01*
G01X49038Y40075D02*
G01X47838Y40075D01*
G01X51038Y42474D02*
G01X52237Y42474D01*
G01X51038Y40075D02*
G01X52237Y40075D01*
G01X47538Y42274D02*
G01X47538Y40275D01*
G01X47738Y42474D02*
G01X47838Y42474D01*
G01X47738Y40075D02*
G01X47838Y40075D01*
G01X52338Y42474D02*
G01X52237Y42474D01*
G01X52338Y40075D02*
G01X52237Y40075D01*
G54D34*
G01X52578Y1651D02*
G01X52578Y6731D01*
G01X44958Y6731D01*
G01X44958Y1651D01*
G01X52578Y1651D01*
G01X47709Y1651D01*
G54D40*
G01X66235Y41663D02*
G01X65913Y40815D01*
G01X66235Y41663D02*
G01X66560Y40815D01*
G01X66034Y41097D02*
G01X66438Y41097D01*
G01X67310Y41663D02*
G01X66906Y41663D01*
G01X66865Y41300D01*
G01X66906Y41341D01*
G01X67028Y41381D01*
G01X67149Y41381D01*
G01X67271Y41341D01*
G01X67350Y41259D01*
G01X67391Y41137D01*
G01X67391Y41059D01*
G01X67350Y40937D01*
G01X67271Y40855D01*
G01X67149Y40815D01*
G01X67028Y40815D01*
G01X66906Y40855D01*
G01X66865Y40896D01*
G01X66827Y40977D01*
G01X66235Y39250D02*
G01X65913Y38402D01*
G01X66235Y39250D02*
G01X66560Y38402D01*
G01X66034Y38684D02*
G01X66438Y38684D01*
G01X67231Y39250D02*
G01X66827Y38684D01*
G01X67431Y38684D01*
G01X67231Y39250D02*
G01X67231Y38402D01*
G01X66235Y36583D02*
G01X65913Y35735D01*
G01X66235Y36583D02*
G01X66560Y35735D01*
G01X66034Y36017D02*
G01X66438Y36017D01*
G01X66906Y36583D02*
G01X67350Y36583D01*
G01X67109Y36261D01*
G01X67231Y36261D01*
G01X67310Y36220D01*
G01X67350Y36179D01*
G01X67391Y36057D01*
G01X67391Y35979D01*
G01X67350Y35857D01*
G01X67271Y35775D01*
G01X67149Y35735D01*
G01X67028Y35735D01*
G01X66906Y35775D01*
G01X66865Y35816D01*
G01X66827Y35897D01*
G01X66235Y34170D02*
G01X65913Y33322D01*
G01X66235Y34170D02*
G01X66560Y33322D01*
G01X66034Y33604D02*
G01X66438Y33604D01*
G01X66865Y33969D02*
G01X66865Y34010D01*
G01X66906Y34089D01*
G01X66946Y34129D01*
G01X67028Y34170D01*
G01X67190Y34170D01*
G01X67271Y34129D01*
G01X67310Y34089D01*
G01X67350Y34010D01*
G01X67350Y33929D01*
G01X67310Y33848D01*
G01X67231Y33726D01*
G01X66827Y33322D01*
G01X67391Y33322D01*
G01X66235Y31630D02*
G01X65913Y30782D01*
G01X66235Y31630D02*
G01X66560Y30782D01*
G01X66034Y31064D02*
G01X66438Y31064D01*
G01X66827Y31470D02*
G01X66906Y31508D01*
G01X67028Y31630D01*
G01X67028Y30782D01*
G01X66235Y28963D02*
G01X65913Y28115D01*
G01X66235Y28963D02*
G01X66560Y28115D01*
G01X66034Y28397D02*
G01X66438Y28397D01*
G01X67068Y28963D02*
G01X66946Y28922D01*
G01X66865Y28803D01*
G01X66827Y28600D01*
G01X66827Y28478D01*
G01X66865Y28277D01*
G01X66946Y28155D01*
G01X67068Y28115D01*
G01X67149Y28115D01*
G01X67271Y28155D01*
G01X67350Y28277D01*
G01X67391Y28478D01*
G01X67391Y28600D01*
G01X67350Y28803D01*
G01X67271Y28922D01*
G01X67149Y28963D01*
G01X67068Y28963D01*
G01X66040Y12072D02*
G01X66040Y11224D01*
G01X66040Y12072D02*
G01X66321Y12072D01*
G01X66443Y12031D01*
G01X66525Y11950D01*
G01X66565Y11871D01*
G01X66606Y11750D01*
G01X66606Y11546D01*
G01X66565Y11427D01*
G01X66525Y11346D01*
G01X66443Y11264D01*
G01X66321Y11224D01*
G01X66040Y11224D01*
G01X67073Y12072D02*
G01X66954Y12031D01*
G01X66913Y11950D01*
G01X66913Y11871D01*
G01X66954Y11790D01*
G01X67033Y11750D01*
G01X67195Y11709D01*
G01X67317Y11668D01*
G01X67398Y11587D01*
G01X67437Y11506D01*
G01X67437Y11386D01*
G01X67398Y11305D01*
G01X67358Y11264D01*
G01X67236Y11224D01*
G01X67073Y11224D01*
G01X66954Y11264D01*
G01X66913Y11305D01*
G01X66873Y11386D01*
G01X66873Y11506D01*
G01X66913Y11587D01*
G01X66992Y11668D01*
G01X67114Y11709D01*
G01X67276Y11750D01*
G01X67358Y11790D01*
G01X67398Y11871D01*
G01X67398Y11950D01*
G01X67358Y12031D01*
G01X67236Y12072D01*
G01X67073Y12072D01*
G01X66040Y14739D02*
G01X66040Y13891D01*
G01X66040Y14739D02*
G01X66321Y14739D01*
G01X66443Y14698D01*
G01X66525Y14617D01*
G01X66565Y14538D01*
G01X66606Y14417D01*
G01X66606Y14213D01*
G01X66565Y14094D01*
G01X66525Y14013D01*
G01X66443Y13931D01*
G01X66321Y13891D01*
G01X66040Y13891D01*
G01X67398Y14457D02*
G01X67358Y14335D01*
G01X67276Y14254D01*
G01X67155Y14213D01*
G01X67114Y14213D01*
G01X66992Y14254D01*
G01X66913Y14335D01*
G01X66873Y14457D01*
G01X66873Y14498D01*
G01X66913Y14617D01*
G01X66992Y14698D01*
G01X67114Y14739D01*
G01X67155Y14739D01*
G01X67276Y14698D01*
G01X67358Y14617D01*
G01X67398Y14457D01*
G01X67398Y14254D01*
G01X67358Y14053D01*
G01X67276Y13931D01*
G01X67155Y13891D01*
G01X67073Y13891D01*
G01X66954Y13931D01*
G01X66913Y14013D01*
G01X66040Y17152D02*
G01X66040Y16304D01*
G01X66040Y17152D02*
G01X66321Y17152D01*
G01X66443Y17111D01*
G01X66525Y17030D01*
G01X66565Y16951D01*
G01X66606Y16830D01*
G01X66606Y16626D01*
G01X66565Y16507D01*
G01X66525Y16426D01*
G01X66443Y16344D01*
G01X66321Y16304D01*
G01X66040Y16304D01*
G01X66873Y16992D02*
G01X66954Y17030D01*
G01X67073Y17152D01*
G01X67073Y16304D01*
G01X67584Y17152D02*
G01X67462Y17111D01*
G01X67381Y16992D01*
G01X67340Y16789D01*
G01X67340Y16667D01*
G01X67381Y16466D01*
G01X67462Y16344D01*
G01X67584Y16304D01*
G01X67665Y16304D01*
G01X67784Y16344D01*
G01X67866Y16466D01*
G01X67906Y16667D01*
G01X67906Y16789D01*
G01X67866Y16992D01*
G01X67784Y17111D01*
G01X67665Y17152D01*
G01X67584Y17152D01*
G01X66040Y19819D02*
G01X66040Y18971D01*
G01X66040Y19819D02*
G01X66321Y19819D01*
G01X66443Y19778D01*
G01X66525Y19697D01*
G01X66565Y19618D01*
G01X66606Y19497D01*
G01X66606Y19293D01*
G01X66565Y19174D01*
G01X66525Y19093D01*
G01X66443Y19011D01*
G01X66321Y18971D01*
G01X66040Y18971D01*
G01X66873Y19659D02*
G01X66954Y19697D01*
G01X67073Y19819D01*
G01X67073Y18971D01*
G01X67340Y19659D02*
G01X67421Y19697D01*
G01X67543Y19819D01*
G01X67543Y18971D01*
G01X66040Y22359D02*
G01X66040Y21511D01*
G01X66040Y22359D02*
G01X66321Y22359D01*
G01X66443Y22318D01*
G01X66525Y22237D01*
G01X66565Y22158D01*
G01X66606Y22037D01*
G01X66606Y21833D01*
G01X66565Y21714D01*
G01X66525Y21633D01*
G01X66443Y21551D01*
G01X66321Y21511D01*
G01X66040Y21511D01*
G01X66873Y22199D02*
G01X66954Y22237D01*
G01X67073Y22359D01*
G01X67073Y21511D01*
G01X67381Y22158D02*
G01X67381Y22199D01*
G01X67421Y22278D01*
G01X67462Y22318D01*
G01X67543Y22359D01*
G01X67703Y22359D01*
G01X67784Y22318D01*
G01X67825Y22278D01*
G01X67866Y22199D01*
G01X67866Y22118D01*
G01X67825Y22037D01*
G01X67744Y21915D01*
G01X67340Y21511D01*
G01X67906Y21511D01*
G01X66040Y24899D02*
G01X66040Y24051D01*
G01X66040Y24899D02*
G01X66321Y24899D01*
G01X66443Y24858D01*
G01X66525Y24777D01*
G01X66565Y24698D01*
G01X66606Y24577D01*
G01X66606Y24373D01*
G01X66565Y24254D01*
G01X66525Y24173D01*
G01X66443Y24091D01*
G01X66321Y24051D01*
G01X66040Y24051D01*
G01X66873Y24739D02*
G01X66954Y24777D01*
G01X67073Y24899D01*
G01X67073Y24051D01*
G01X67421Y24899D02*
G01X67866Y24899D01*
G01X67624Y24577D01*
G01X67744Y24577D01*
G01X67825Y24536D01*
G01X67866Y24495D01*
G01X67906Y24373D01*
G01X67906Y24295D01*
G01X67866Y24173D01*
G01X67784Y24091D01*
G01X67665Y24051D01*
G01X67543Y24051D01*
G01X67421Y24091D01*
G01X67381Y24132D01*
G01X67340Y24213D01*
G01X42164Y41790D02*
G01X42164Y40942D01*
G01X42164Y41790D02*
G01X42445Y41790D01*
G01X42567Y41749D01*
G01X42649Y41668D01*
G01X42689Y41589D01*
G01X42730Y41468D01*
G01X42730Y41264D01*
G01X42689Y41145D01*
G01X42649Y41064D01*
G01X42567Y40982D01*
G01X42445Y40942D01*
G01X42164Y40942D01*
G01X43238Y41790D02*
G01X43116Y41749D01*
G01X43037Y41630D01*
G01X42997Y41427D01*
G01X42997Y41305D01*
G01X43037Y41104D01*
G01X43116Y40982D01*
G01X43238Y40942D01*
G01X43319Y40942D01*
G01X43441Y40982D01*
G01X43522Y41104D01*
G01X43561Y41305D01*
G01X43561Y41427D01*
G01X43522Y41630D01*
G01X43441Y41749D01*
G01X43319Y41790D01*
G01X43238Y41790D01*
G01X42164Y39250D02*
G01X42164Y38402D01*
G01X42164Y39250D02*
G01X42445Y39250D01*
G01X42567Y39209D01*
G01X42649Y39128D01*
G01X42689Y39049D01*
G01X42730Y38928D01*
G01X42730Y38724D01*
G01X42689Y38605D01*
G01X42649Y38524D01*
G01X42567Y38442D01*
G01X42445Y38402D01*
G01X42164Y38402D01*
G01X42997Y39090D02*
G01X43078Y39128D01*
G01X43197Y39250D01*
G01X43197Y38402D01*
G01X42164Y36710D02*
G01X42164Y35862D01*
G01X42164Y36710D02*
G01X42445Y36710D01*
G01X42567Y36669D01*
G01X42649Y36588D01*
G01X42689Y36509D01*
G01X42730Y36388D01*
G01X42730Y36184D01*
G01X42689Y36065D01*
G01X42649Y35984D01*
G01X42567Y35902D01*
G01X42445Y35862D01*
G01X42164Y35862D01*
G01X43037Y36509D02*
G01X43037Y36550D01*
G01X43078Y36629D01*
G01X43116Y36669D01*
G01X43197Y36710D01*
G01X43360Y36710D01*
G01X43441Y36669D01*
G01X43482Y36629D01*
G01X43522Y36550D01*
G01X43522Y36469D01*
G01X43482Y36388D01*
G01X43400Y36266D01*
G01X42997Y35862D01*
G01X43561Y35862D01*
G01X42164Y34170D02*
G01X42164Y33322D01*
G01X42164Y34170D02*
G01X42445Y34170D01*
G01X42567Y34129D01*
G01X42649Y34048D01*
G01X42689Y33969D01*
G01X42730Y33848D01*
G01X42730Y33644D01*
G01X42689Y33525D01*
G01X42649Y33444D01*
G01X42567Y33362D01*
G01X42445Y33322D01*
G01X42164Y33322D01*
G01X43078Y34170D02*
G01X43522Y34170D01*
G01X43279Y33848D01*
G01X43400Y33848D01*
G01X43482Y33807D01*
G01X43522Y33766D01*
G01X43561Y33644D01*
G01X43561Y33566D01*
G01X43522Y33444D01*
G01X43441Y33362D01*
G01X43319Y33322D01*
G01X43197Y33322D01*
G01X43078Y33362D01*
G01X43037Y33403D01*
G01X42997Y33484D01*
G01X42037Y31630D02*
G01X42037Y30782D01*
G01X42037Y31630D02*
G01X42318Y31630D01*
G01X42440Y31589D01*
G01X42522Y31508D01*
G01X42562Y31429D01*
G01X42603Y31308D01*
G01X42603Y31104D01*
G01X42562Y30985D01*
G01X42522Y30904D01*
G01X42440Y30822D01*
G01X42318Y30782D01*
G01X42037Y30782D01*
G01X43273Y31630D02*
G01X42870Y31064D01*
G01X43474Y31064D01*
G01X43273Y31630D02*
G01X43273Y30782D01*
G01X42037Y29090D02*
G01X42037Y28242D01*
G01X42037Y29090D02*
G01X42318Y29090D01*
G01X42440Y29049D01*
G01X42522Y28968D01*
G01X42562Y28889D01*
G01X42603Y28768D01*
G01X42603Y28564D01*
G01X42562Y28445D01*
G01X42522Y28364D01*
G01X42440Y28282D01*
G01X42318Y28242D01*
G01X42037Y28242D01*
G01X43355Y29090D02*
G01X42951Y29090D01*
G01X42910Y28727D01*
G01X42951Y28768D01*
G01X43070Y28808D01*
G01X43192Y28808D01*
G01X43314Y28768D01*
G01X43395Y28686D01*
G01X43434Y28564D01*
G01X43434Y28486D01*
G01X43395Y28364D01*
G01X43314Y28282D01*
G01X43192Y28242D01*
G01X43070Y28242D01*
G01X42951Y28282D01*
G01X42910Y28323D01*
G01X42870Y28404D01*
G01X42037Y26677D02*
G01X42037Y25829D01*
G01X42037Y26677D02*
G01X42318Y26677D01*
G01X42440Y26636D01*
G01X42522Y26555D01*
G01X42562Y26476D01*
G01X42603Y26355D01*
G01X42603Y26151D01*
G01X42562Y26032D01*
G01X42522Y25951D01*
G01X42440Y25869D01*
G01X42318Y25829D01*
G01X42037Y25829D01*
G01X43355Y26555D02*
G01X43314Y26636D01*
G01X43192Y26677D01*
G01X43111Y26677D01*
G01X42989Y26636D01*
G01X42910Y26517D01*
G01X42870Y26314D01*
G01X42870Y26111D01*
G01X42910Y25951D01*
G01X42989Y25869D01*
G01X43111Y25829D01*
G01X43152Y25829D01*
G01X43273Y25869D01*
G01X43355Y25951D01*
G01X43395Y26073D01*
G01X43395Y26111D01*
G01X43355Y26233D01*
G01X43273Y26314D01*
G01X43152Y26355D01*
G01X43111Y26355D01*
G01X42989Y26314D01*
G01X42910Y26233D01*
G01X42870Y26111D01*
G01X42037Y24010D02*
G01X42037Y23162D01*
G01X42037Y24010D02*
G01X42318Y24010D01*
G01X42440Y23969D01*
G01X42522Y23888D01*
G01X42562Y23809D01*
G01X42603Y23688D01*
G01X42603Y23484D01*
G01X42562Y23365D01*
G01X42522Y23284D01*
G01X42440Y23202D01*
G01X42318Y23162D01*
G01X42037Y23162D01*
G01X43434Y24010D02*
G01X43030Y23162D01*
G01X42870Y24010D02*
G01X43434Y24010D01*
G54D34*
G01X59169Y19258D02*
G01X60383Y18796D01*
G01X59169Y19258D02*
G01X60383Y19720D01*
G01X59979Y18968D02*
G01X59979Y19545D01*
G01X59169Y20505D02*
G01X60383Y20505D01*
G01X59169Y20101D02*
G01X59169Y20909D01*
G01X59575Y21290D02*
G01X60383Y21290D01*
G01X59804Y21290D02*
G01X59631Y21463D01*
G01X59575Y21577D01*
G01X59575Y21752D01*
G01X59631Y21866D01*
G01X59804Y21925D01*
G01X60383Y21925D01*
G01X59804Y21925D02*
G01X59631Y22098D01*
G01X59575Y22212D01*
G01X59575Y22387D01*
G01X59631Y22501D01*
G01X59804Y22560D01*
G01X60383Y22560D01*
G01X59921Y22941D02*
G01X59921Y23634D01*
G01X59804Y23634D01*
G01X59690Y23576D01*
G01X59631Y23517D01*
G01X59575Y23403D01*
G01X59575Y23228D01*
G01X59631Y23114D01*
G01X59748Y22999D01*
G01X59921Y22941D01*
G01X60035Y22941D01*
G01X60210Y22999D01*
G01X60325Y23114D01*
G01X60383Y23228D01*
G01X60383Y23403D01*
G01X60325Y23517D01*
G01X60210Y23634D01*
G01X59575Y24706D02*
G01X60497Y24706D01*
G01X60670Y24650D01*
G01X60728Y24592D01*
G01X60787Y24475D01*
G01X60787Y24302D01*
G01X60728Y24188D01*
G01X59748Y24706D02*
G01X59631Y24592D01*
G01X59575Y24475D01*
G01X59575Y24302D01*
G01X59631Y24188D01*
G01X59748Y24071D01*
G01X59921Y24015D01*
G01X60035Y24015D01*
G01X60210Y24071D01*
G01X60325Y24188D01*
G01X60383Y24302D01*
G01X60383Y24475D01*
G01X60325Y24592D01*
G01X60210Y24706D01*
G01X59575Y25781D02*
G01X60383Y25781D01*
G01X59748Y25781D02*
G01X59631Y25666D01*
G01X59575Y25549D01*
G01X59575Y25377D01*
G01X59631Y25260D01*
G01X59748Y25146D01*
G01X59921Y25087D01*
G01X60035Y25087D01*
G01X60210Y25146D01*
G01X60325Y25260D01*
G01X60383Y25377D01*
G01X60383Y25549D01*
G01X60325Y25666D01*
G01X60210Y25781D01*
G01X59169Y26276D02*
G01X59169Y26911D01*
G01X59631Y26565D01*
G01X59631Y26738D01*
G01X59690Y26855D01*
G01X59748Y26911D01*
G01X59921Y26969D01*
G01X60035Y26969D01*
G01X60210Y26911D01*
G01X60325Y26797D01*
G01X60383Y26624D01*
G01X60383Y26451D01*
G01X60325Y26276D01*
G01X60266Y26220D01*
G01X60152Y26162D01*
G01X59458Y27409D02*
G01X59400Y27409D01*
G01X59286Y27467D01*
G01X59227Y27523D01*
G01X59169Y27640D01*
G01X59169Y27871D01*
G01X59227Y27985D01*
G01X59286Y28044D01*
G01X59400Y28102D01*
G01X59517Y28102D01*
G01X59631Y28044D01*
G01X59804Y27927D01*
G01X60383Y27350D01*
G01X60383Y28158D01*
G01X59169Y28829D02*
G01X59227Y28656D01*
G01X59344Y28597D01*
G01X59458Y28597D01*
G01X59575Y28656D01*
G01X59631Y28770D01*
G01X59690Y29001D01*
G01X59748Y29174D01*
G01X59862Y29291D01*
G01X59979Y29349D01*
G01X60152Y29349D01*
G01X60266Y29291D01*
G01X60325Y29232D01*
G01X60383Y29060D01*
G01X60383Y28829D01*
G01X60325Y28656D01*
G01X60266Y28597D01*
G01X60152Y28539D01*
G01X59979Y28539D01*
G01X59862Y28597D01*
G01X59748Y28714D01*
G01X59690Y28887D01*
G01X59631Y29118D01*
G01X59575Y29232D01*
G01X59458Y29291D01*
G01X59344Y29291D01*
G01X59227Y29232D01*
G01X59169Y29060D01*
G01X59169Y28829D01*
G01X59575Y29730D02*
G01X60787Y29730D01*
G01X59748Y29730D02*
G01X59631Y29845D01*
G01X59575Y29959D01*
G01X59575Y30134D01*
G01X59631Y30248D01*
G01X59748Y30365D01*
G01X59921Y30421D01*
G01X60035Y30421D01*
G01X60210Y30365D01*
G01X60325Y30248D01*
G01X60383Y30134D01*
G01X60383Y29959D01*
G01X60325Y29845D01*
G01X60210Y29730D01*
G01X19177Y9288D02*
G01X19177Y7350D01*
G01X20469Y9288D02*
G01X19177Y7995D01*
G01X19639Y8458D02*
G01X20469Y7350D01*
G01X21727Y9288D02*
G01X21727Y7350D01*
G01X21079Y9288D02*
G01X22372Y9288D01*
G01X24274Y9011D02*
G01X24091Y9197D01*
G01X23812Y9288D01*
G01X23444Y9288D01*
G01X23167Y9197D01*
G01X22981Y9011D01*
G01X22981Y8826D01*
G01X23075Y8643D01*
G01X23167Y8549D01*
G01X23352Y8458D01*
G01X23906Y8272D01*
G01X24091Y8181D01*
G01X24183Y8089D01*
G01X24274Y7904D01*
G01X24274Y7627D01*
G01X24091Y7442D01*
G01X23812Y7350D01*
G01X23444Y7350D01*
G01X23167Y7442D01*
G01X22981Y7627D01*
G01X26306Y9288D02*
G01X26306Y7350D01*
G01X26306Y7350D02*
G01X27416Y7350D01*
G01X28026Y9288D02*
G01X28026Y7350D01*
G01X28026Y9288D02*
G01X29225Y9288D01*
G01X28026Y8366D02*
G01X28765Y8366D01*
G01X28026Y7350D02*
G01X29225Y7350D01*
G01X29834Y9288D02*
G01X29834Y7350D01*
G01X29834Y9288D02*
G01X30482Y9288D01*
G01X30759Y9197D01*
G01X30944Y9011D01*
G01X31036Y8826D01*
G01X31127Y8549D01*
G01X31127Y8089D01*
G01X31036Y7810D01*
G01X30944Y7627D01*
G01X30759Y7442D01*
G01X30482Y7350D01*
G01X29834Y7350D01*
G01X33159Y9288D02*
G01X33159Y7350D01*
G01X33159Y9288D02*
G01X33898Y7350D01*
G01X34637Y9288D02*
G01X33898Y7350D01*
G01X34637Y9288D02*
G01X34637Y7350D01*
G01X36357Y8643D02*
G01X36357Y7350D01*
G01X36357Y8366D02*
G01X36172Y8549D01*
G01X35986Y8643D01*
G01X35709Y8643D01*
G01X35524Y8549D01*
G01X35341Y8366D01*
G01X35247Y8089D01*
G01X35247Y7904D01*
G01X35341Y7627D01*
G01X35524Y7442D01*
G01X35709Y7350D01*
G01X35986Y7350D01*
G01X36172Y7442D01*
G01X36357Y7627D01*
G01X37244Y9288D02*
G01X37244Y7719D01*
G01X37335Y7442D01*
G01X37520Y7350D01*
G01X37706Y7350D01*
G01X36967Y8643D02*
G01X37612Y8643D01*
G01X38315Y8643D02*
G01X38315Y7350D01*
G01X38315Y8089D02*
G01X38407Y8366D01*
G01X38592Y8549D01*
G01X38775Y8643D01*
G01X39052Y8643D01*
G01X39662Y9288D02*
G01X39756Y9197D01*
G01X39847Y9288D01*
G01X39756Y9382D01*
G01X39662Y9288D01*
G01X39756Y8643D02*
G01X39756Y7350D01*
G01X40457Y8643D02*
G01X41473Y7350D01*
G01X41473Y8643D02*
G01X40457Y7350D01*
G01X27051Y5618D02*
G01X27236Y5709D01*
G01X27513Y5986D01*
G01X27513Y4048D01*
G01X28676Y5986D02*
G01X28399Y5895D01*
G01X28214Y5618D01*
G01X28122Y5156D01*
G01X28122Y4879D01*
G01X28214Y4417D01*
G01X28399Y4140D01*
G01X28676Y4048D01*
G01X28862Y4048D01*
G01X29138Y4140D01*
G01X29324Y4417D01*
G01X29415Y4879D01*
G01X29415Y5156D01*
G01X29324Y5618D01*
G01X29138Y5895D01*
G01X28862Y5986D01*
G01X28676Y5986D01*
G01X30116Y4508D02*
G01X30025Y4417D01*
G01X30116Y4325D01*
G01X30210Y4417D01*
G01X30116Y4508D01*
G01X30820Y5618D02*
G01X31003Y5709D01*
G01X31280Y5986D01*
G01X31280Y4048D01*
G01X32445Y5986D02*
G01X32169Y5895D01*
G01X31983Y5618D01*
G01X31889Y5156D01*
G01X31889Y4879D01*
G01X31983Y4417D01*
G01X32169Y4140D01*
G01X32445Y4048D01*
G01X32628Y4048D01*
G01X32905Y4140D01*
G01X33091Y4417D01*
G01X33185Y4879D01*
G01X33185Y5156D01*
G01X33091Y5618D01*
G01X32905Y5895D01*
G01X32628Y5986D01*
G01X32445Y5986D01*
G01X33886Y4508D02*
G01X33794Y4417D01*
G01X33886Y4325D01*
G01X33977Y4417D01*
G01X33886Y4508D01*
G01X34681Y5524D02*
G01X34681Y5618D01*
G01X34772Y5803D01*
G01X34864Y5895D01*
G01X35049Y5986D01*
G01X35420Y5986D01*
G01X35603Y5895D01*
G01X35697Y5803D01*
G01X35788Y5618D01*
G01X35788Y5433D01*
G01X35697Y5247D01*
G01X35511Y4970D01*
G01X34587Y4048D01*
G01X35880Y4048D01*
G01X37045Y5986D02*
G01X36766Y5895D01*
G01X36583Y5618D01*
G01X36489Y5156D01*
G01X36489Y4879D01*
G01X36583Y4417D01*
G01X36766Y4140D01*
G01X37045Y4048D01*
G01X37228Y4048D01*
G01X37505Y4140D01*
G01X37691Y4417D01*
G01X37782Y4879D01*
G01X37782Y5156D01*
G01X37691Y5618D01*
G01X37505Y5895D01*
G01X37228Y5986D01*
G01X37045Y5986D01*
G01X38486Y5524D02*
G01X38486Y5618D01*
G01X38577Y5803D01*
G01X38671Y5895D01*
G01X38854Y5986D01*
G01X39225Y5986D01*
G01X39408Y5895D01*
G01X39502Y5803D01*
G01X39593Y5618D01*
G01X39593Y5433D01*
G01X39502Y5247D01*
G01X39316Y4970D01*
G01X38392Y4048D01*
G01X39687Y4048D01*
G01X40850Y5986D02*
G01X40573Y5895D01*
G01X40388Y5618D01*
G01X40297Y5156D01*
G01X40297Y4879D01*
G01X40388Y4417D01*
G01X40573Y4140D01*
G01X40850Y4048D01*
G01X41033Y4048D01*
G01X41313Y4140D01*
G01X41495Y4417D01*
G01X41589Y4879D01*
G01X41589Y5156D01*
G01X41495Y5618D01*
G01X41313Y5895D01*
G01X41033Y5986D01*
G01X40850Y5986D01*
G01X33655Y3065D02*
G01X33655Y1127D01*
G01X33655Y3065D02*
G01X34302Y3065D01*
G01X34579Y2974D01*
G01X34762Y2788D01*
G01X34856Y2603D01*
G01X34947Y2326D01*
G01X34947Y1866D01*
G01X34856Y1587D01*
G01X34762Y1404D01*
G01X34579Y1219D01*
G01X34302Y1127D01*
G01X33655Y1127D01*
G01X36664Y2420D02*
G01X36664Y1127D01*
G01X36664Y2143D02*
G01X36482Y2326D01*
G01X36296Y2420D01*
G01X36019Y2420D01*
G01X35834Y2326D01*
G01X35648Y2143D01*
G01X35557Y1866D01*
G01X35557Y1681D01*
G01X35648Y1404D01*
G01X35834Y1219D01*
G01X36019Y1127D01*
G01X36296Y1127D01*
G01X36482Y1219D01*
G01X36664Y1404D01*
G01X37274Y2420D02*
G01X37645Y1127D01*
G01X38013Y2420D02*
G01X37645Y1127D01*
G01X38013Y2420D02*
G01X38384Y1127D01*
G01X38752Y2420D02*
G01X38384Y1127D01*
G01X39362Y1866D02*
G01X40472Y1866D01*
G01X40472Y2049D01*
G01X40378Y2235D01*
G01X40286Y2326D01*
G01X40101Y2420D01*
G01X39824Y2420D01*
G01X39639Y2326D01*
G01X39456Y2143D01*
G01X39362Y1866D01*
G01X39362Y1681D01*
G01X39456Y1404D01*
G01X39639Y1219D01*
G01X39824Y1127D01*
G01X40101Y1127D01*
G01X40286Y1219D01*
G01X40472Y1404D01*
G01X41081Y3065D02*
G01X41173Y2974D01*
G01X41264Y3065D01*
G01X41173Y3159D01*
G01X41081Y3065D01*
G01X41173Y2420D02*
G01X41173Y1127D01*
G01X21612Y36974D02*
G01X20688Y35036D01*
G01X20320Y36974D02*
G01X21612Y36974D01*
G01X22684Y36974D02*
G01X22407Y36883D01*
G01X22313Y36697D01*
G01X22313Y36512D01*
G01X22407Y36329D01*
G01X22593Y36235D01*
G01X22961Y36144D01*
G01X23238Y36052D01*
G01X23423Y35867D01*
G01X23515Y35681D01*
G01X23515Y35405D01*
G01X23423Y35219D01*
G01X23329Y35128D01*
G01X23053Y35036D01*
G01X22684Y35036D01*
G01X22407Y35128D01*
G01X22313Y35219D01*
G01X22222Y35405D01*
G01X22222Y35681D01*
G01X22313Y35867D01*
G01X22499Y36052D01*
G01X22776Y36144D01*
G01X23147Y36235D01*
G01X23329Y36329D01*
G01X23423Y36512D01*
G01X23423Y36697D01*
G01X23329Y36883D01*
G01X23053Y36974D01*
G01X22684Y36974D01*
G01X24678Y36974D02*
G01X24401Y36883D01*
G01X24218Y36606D01*
G01X24124Y36144D01*
G01X24124Y35867D01*
G01X24218Y35405D01*
G01X24401Y35128D01*
G01X24678Y35036D01*
G01X24864Y35036D01*
G01X25140Y35128D01*
G01X25326Y35405D01*
G01X25417Y35867D01*
G01X25417Y36144D01*
G01X25326Y36606D01*
G01X25140Y36883D01*
G01X24864Y36974D01*
G01X24678Y36974D01*
G01X27137Y36974D02*
G01X26212Y36974D01*
G01X26121Y36144D01*
G01X26212Y36235D01*
G01X26489Y36329D01*
G01X26766Y36329D01*
G01X27043Y36235D01*
G01X27228Y36052D01*
G01X27320Y35775D01*
G01X27320Y35590D01*
G01X27228Y35313D01*
G01X27043Y35128D01*
G01X26766Y35036D01*
G01X26489Y35036D01*
G01X26212Y35128D01*
G01X26121Y35219D01*
G01X26027Y35405D01*
G01X34693Y43919D02*
G01X34579Y43860D01*
G01X34462Y43746D01*
G01X34404Y43629D01*
G01X34404Y43398D01*
G01X34462Y43284D01*
G01X34579Y43167D01*
G01X34693Y43111D01*
G01X34866Y43053D01*
G01X35156Y43053D01*
G01X35328Y43111D01*
G01X35445Y43167D01*
G01X35560Y43284D01*
G01X35618Y43398D01*
G01X35618Y43629D01*
G01X35560Y43746D01*
G01X35445Y43860D01*
G01X35328Y43919D01*
G01X35156Y43919D01*
G01X35156Y43629D02*
G01X35156Y43919D01*
G01X34404Y44300D02*
G01X35618Y44300D01*
G01X34404Y44300D02*
G01X35618Y45107D01*
G01X34404Y45107D02*
G01X35618Y45107D01*
G01X34404Y45488D02*
G01X35618Y45488D01*
G01X34404Y45488D02*
G01X34404Y45892D01*
G01X34462Y46065D01*
G01X34579Y46182D01*
G01X34693Y46240D01*
G01X34866Y46296D01*
G01X35156Y46296D01*
G01X35328Y46240D01*
G01X35445Y46182D01*
G01X35560Y46065D01*
G01X35618Y45892D01*
G01X35618Y45488D01*
G01X39659Y43446D02*
G01X40698Y43446D01*
G01X40177Y42926D02*
G01X40177Y43964D01*
G01X39484Y45039D02*
G01X39484Y44462D01*
G01X40005Y44404D01*
G01X39946Y44462D01*
G01X39890Y44635D01*
G01X39890Y44808D01*
G01X39946Y44980D01*
G01X40063Y45097D01*
G01X40236Y45153D01*
G01X40350Y45153D01*
G01X40525Y45097D01*
G01X40640Y44980D01*
G01X40698Y44808D01*
G01X40698Y44635D01*
G01X40640Y44462D01*
G01X40581Y44404D01*
G01X40467Y44345D01*
G01X39484Y45534D02*
G01X40698Y45996D01*
G01X39484Y46459D02*
G01X40698Y45996D01*
G01X60106Y43065D02*
G01X61145Y43065D01*
G01X60624Y42545D02*
G01X60624Y43583D01*
G01X59931Y44658D02*
G01X59931Y44081D01*
G01X60452Y44023D01*
G01X60393Y44081D01*
G01X60337Y44254D01*
G01X60337Y44427D01*
G01X60393Y44599D01*
G01X60510Y44716D01*
G01X60683Y44772D01*
G01X60797Y44772D01*
G01X60972Y44716D01*
G01X61087Y44599D01*
G01X61145Y44427D01*
G01X61145Y44254D01*
G01X61087Y44081D01*
G01X61028Y44023D01*
G01X60914Y43964D01*
G01X59931Y45153D02*
G01X61145Y45615D01*
G01X59931Y46078D02*
G01X61145Y45615D01*
G01X53594Y45732D02*
G01X53594Y44518D01*
G01X53594Y45732D02*
G01X53997Y45732D01*
G01X54170Y45674D01*
G01X54287Y45557D01*
G01X54343Y45443D01*
G01X54401Y45270D01*
G01X54401Y44980D01*
G01X54343Y44808D01*
G01X54287Y44691D01*
G01X54170Y44577D01*
G01X53997Y44518D01*
G01X53594Y44518D01*
G01X55476Y45326D02*
G01X55476Y44518D01*
G01X55476Y45153D02*
G01X55359Y45270D01*
G01X55245Y45326D01*
G01X55072Y45326D01*
G01X54955Y45270D01*
G01X54841Y45153D01*
G01X54782Y44980D01*
G01X54782Y44866D01*
G01X54841Y44691D01*
G01X54955Y44577D01*
G01X55072Y44518D01*
G01X55245Y44518D01*
G01X55359Y44577D01*
G01X55476Y44691D01*
G01X56029Y45732D02*
G01X56029Y44749D01*
G01X56088Y44577D01*
G01X56202Y44518D01*
G01X56319Y44518D01*
G01X55857Y45326D02*
G01X56261Y45326D01*
G01X57391Y45326D02*
G01X57391Y44518D01*
G01X57391Y45153D02*
G01X57277Y45270D01*
G01X57162Y45326D01*
G01X56987Y45326D01*
G01X56873Y45270D01*
G01X56756Y45153D01*
G01X56700Y44980D01*
G01X56700Y44866D01*
G01X56756Y44691D01*
G01X56873Y44577D01*
G01X56987Y44518D01*
G01X57162Y44518D01*
G01X57277Y44577D01*
G01X57391Y44691D01*
G01X49806Y43538D02*
G01X49692Y43479D01*
G01X49575Y43365D01*
G01X49517Y43248D01*
G01X49517Y43017D01*
G01X49575Y42903D01*
G01X49692Y42786D01*
G01X49806Y42730D01*
G01X49979Y42672D01*
G01X50269Y42672D01*
G01X50441Y42730D01*
G01X50558Y42786D01*
G01X50673Y42903D01*
G01X50731Y43017D01*
G01X50731Y43248D01*
G01X50673Y43365D01*
G01X50558Y43479D01*
G01X50441Y43538D01*
G01X50269Y43538D01*
G01X50269Y43248D02*
G01X50269Y43538D01*
G01X49517Y43919D02*
G01X50731Y43919D01*
G01X49517Y43919D02*
G01X50731Y44726D01*
G01X49517Y44726D02*
G01X50731Y44726D01*
G01X49517Y45107D02*
G01X50731Y45107D01*
G01X49517Y45107D02*
G01X49517Y45511D01*
G01X49575Y45684D01*
G01X49692Y45801D01*
G01X49806Y45859D01*
G01X49979Y45915D01*
G01X50269Y45915D01*
G01X50441Y45859D01*
G01X50558Y45801D01*
G01X50673Y45684D01*
G01X50731Y45511D01*
G01X50731Y45107D01*
G01X54622Y5679D02*
G01X54622Y4640D01*
G01X54102Y5161D02*
G01X55140Y5161D01*
G01X56215Y5854D02*
G01X55638Y5854D01*
G01X55580Y5334D01*
G01X55638Y5392D01*
G01X55811Y5448D01*
G01X55984Y5448D01*
G01X56156Y5392D01*
G01X56273Y5275D01*
G01X56329Y5102D01*
G01X56329Y4988D01*
G01X56273Y4813D01*
G01X56156Y4699D01*
G01X55984Y4640D01*
G01X55811Y4640D01*
G01X55638Y4699D01*
G01X55580Y4757D01*
G01X55521Y4871D01*
G01X56710Y5854D02*
G01X57172Y4640D01*
G01X57635Y5854D02*
G01X57172Y4640D01*
G01X58547Y5854D02*
G01X58547Y4640D01*
G01X58547Y5854D02*
G01X58950Y5854D01*
G01X59123Y5796D01*
G01X59240Y5679D01*
G01X59296Y5565D01*
G01X59354Y5392D01*
G01X59354Y5102D01*
G01X59296Y4930D01*
G01X59240Y4813D01*
G01X59123Y4699D01*
G01X58950Y4640D01*
G01X58547Y4640D01*
G01X59735Y5623D02*
G01X59852Y5679D01*
G01X60025Y5854D01*
G01X60025Y4640D01*
G01X60406Y5623D02*
G01X60520Y5679D01*
G01X60693Y5854D01*
G01X60693Y4640D01*
G01X63223Y5692D02*
G01X63164Y5806D01*
G01X63050Y5923D01*
G01X62933Y5981D01*
G01X62702Y5981D01*
G01X62588Y5923D01*
G01X62471Y5806D01*
G01X62415Y5692D01*
G01X62357Y5519D01*
G01X62357Y5229D01*
G01X62415Y5057D01*
G01X62471Y4940D01*
G01X62588Y4826D01*
G01X62702Y4767D01*
G01X62933Y4767D01*
G01X63050Y4826D01*
G01X63164Y4940D01*
G01X63223Y5057D01*
G01X63223Y5229D01*
G01X62933Y5229D02*
G01X63223Y5229D01*
G01X63604Y5981D02*
G01X63604Y4767D01*
G01X63604Y5981D02*
G01X64411Y4767D01*
G01X64411Y5981D02*
G01X64411Y4767D01*
G01X64792Y5981D02*
G01X64792Y4767D01*
G01X64792Y5981D02*
G01X65196Y5981D01*
G01X65369Y5923D01*
G01X65486Y5806D01*
G01X65544Y5692D01*
G01X65600Y5519D01*
G01X65600Y5229D01*
G01X65544Y5057D01*
G01X65486Y4940D01*
G01X65369Y4826D01*
G01X65196Y4767D01*
G01X64792Y4767D01*
G01X54737Y3441D02*
G01X54737Y2227D01*
G01X54737Y3441D02*
G01X55140Y3441D01*
G01X55313Y3383D01*
G01X55430Y3266D01*
G01X55486Y3152D01*
G01X55544Y2979D01*
G01X55544Y2689D01*
G01X55486Y2517D01*
G01X55430Y2400D01*
G01X55313Y2286D01*
G01X55140Y2227D01*
G01X54737Y2227D01*
G01X55925Y3210D02*
G01X56042Y3266D01*
G01X56215Y3441D01*
G01X56215Y2227D01*
G01X56654Y3152D02*
G01X56654Y3210D01*
G01X56710Y3324D01*
G01X56769Y3383D01*
G01X56883Y3441D01*
G01X57114Y3441D01*
G01X57231Y3383D01*
G01X57289Y3324D01*
G01X57345Y3210D01*
G01X57345Y3093D01*
G01X57289Y2979D01*
G01X57172Y2806D01*
G01X56596Y2227D01*
G01X57404Y2227D01*
G01X58674Y3441D02*
G01X58674Y2227D01*
G01X58674Y3441D02*
G01X59077Y3441D01*
G01X59250Y3383D01*
G01X59367Y3266D01*
G01X59423Y3152D01*
G01X59481Y2979D01*
G01X59481Y2689D01*
G01X59423Y2517D01*
G01X59367Y2400D01*
G01X59250Y2286D01*
G01X59077Y2227D01*
G01X58674Y2227D01*
G01X59862Y3210D02*
G01X59979Y3266D01*
G01X60152Y3441D01*
G01X60152Y2227D01*
G01X60647Y3441D02*
G01X61282Y3441D01*
G01X60937Y2979D01*
G01X61109Y2979D01*
G01X61226Y2921D01*
G01X61282Y2862D01*
G01X61341Y2689D01*
G01X61341Y2575D01*
G01X61282Y2400D01*
G01X61168Y2286D01*
G01X60995Y2227D01*
G01X60820Y2227D01*
G01X60647Y2286D01*
G01X60591Y2344D01*
G01X60533Y2458D01*
G01X62484Y3441D02*
G01X62484Y2227D01*
G01X62484Y3441D02*
G01X63004Y3441D01*
G01X63177Y3383D01*
G01X63233Y3324D01*
G01X63291Y3210D01*
G01X63291Y3093D01*
G01X63233Y2979D01*
G01X63177Y2921D01*
G01X63004Y2862D01*
G01X62484Y2862D01*
G01X62887Y2862D02*
G01X63291Y2227D01*
G01X64480Y3266D02*
G01X64366Y3383D01*
G01X64193Y3441D01*
G01X63962Y3441D01*
G01X63789Y3383D01*
G01X63672Y3266D01*
G01X63672Y3152D01*
G01X63731Y3035D01*
G01X63789Y2979D01*
G01X63903Y2921D01*
G01X64249Y2806D01*
G01X64366Y2748D01*
G01X64424Y2689D01*
G01X64480Y2575D01*
G01X64480Y2400D01*
G01X64366Y2286D01*
G01X64193Y2227D01*
G01X63962Y2227D01*
G01X63789Y2286D01*
G01X63672Y2400D01*
G01X65265Y3441D02*
G01X65265Y2227D01*
G01X64861Y3441D02*
G01X65671Y3441D01*
G54D41*
G01X35300Y32435D02*
G01X35250Y32435D01*
G01X35145Y32489D01*
G01X35092Y32539D01*
G01X35041Y32644D01*
G01X35041Y32852D01*
G01X35092Y32956D01*
G01X35145Y33007D01*
G01X35250Y33060D01*
G01X35354Y33060D01*
G01X35458Y33007D01*
G01X35613Y32905D01*
G01X36131Y32385D01*
G01X36131Y33111D01*
G01X69712Y18034D02*
G01X70802Y18034D01*
G01X69712Y18034D02*
G01X69712Y18501D01*
G01X69763Y18656D01*
G01X69816Y18709D01*
G01X69921Y18760D01*
G01X70076Y18760D01*
G01X70180Y18709D01*
G01X70231Y18656D01*
G01X70284Y18501D01*
G01X70284Y18034D01*
G01X69712Y19624D02*
G01X70439Y19103D01*
G01X70439Y19883D01*
G01X69712Y19624D02*
G01X70802Y19624D01*
G01X69585Y34798D02*
G01X70675Y34798D01*
G01X69585Y34798D02*
G01X69585Y35265D01*
G01X69636Y35420D01*
G01X69689Y35473D01*
G01X69794Y35524D01*
G01X69949Y35524D01*
G01X70053Y35473D01*
G01X70104Y35420D01*
G01X70157Y35265D01*
G01X70157Y34798D01*
G01X69585Y36492D02*
G01X69585Y35971D01*
G01X70053Y35920D01*
G01X70002Y35971D01*
G01X69949Y36128D01*
G01X69949Y36283D01*
G01X70002Y36438D01*
G01X70104Y36542D01*
G01X70261Y36596D01*
G01X70365Y36596D01*
G01X70520Y36542D01*
G01X70624Y36438D01*
G01X70675Y36283D01*
G01X70675Y36128D01*
G01X70624Y35971D01*
G01X70573Y35920D01*
G01X70469Y35867D01*
G01X2413Y46619D02*
G01X2413Y45529D01*
G01X2413Y46619D02*
G01X2880Y46619D01*
G01X3035Y46568D01*
G01X3088Y46515D01*
G01X3139Y46410D01*
G01X3139Y46255D01*
G01X3088Y46151D01*
G01X3035Y46101D01*
G01X2880Y46047D01*
G01X2413Y46047D01*
G01X3482Y46619D02*
G01X3743Y45529D01*
G01X4003Y46619D02*
G01X3743Y45529D01*
G01X4003Y46619D02*
G01X4262Y45529D01*
G01X4521Y46619D02*
G01X4262Y45529D01*
G01X4864Y46619D02*
G01X4864Y45529D01*
G01X4864Y46619D02*
G01X5334Y46619D01*
G01X5488Y46568D01*
G01X5539Y46515D01*
G01X5593Y46410D01*
G01X5593Y46306D01*
G01X5539Y46202D01*
G01X5488Y46151D01*
G01X5334Y46101D01*
G01X4864Y46101D01*
G01X5229Y46101D02*
G01X5593Y45529D01*
G01X42854Y31115D02*
G01X42908Y31010D01*
G01X43063Y30855D01*
G01X41973Y30855D01*
G01X10287Y31993D02*
G01X10287Y33083D01*
G01X10287Y31993D02*
G01X9819Y31993D01*
G01X9664Y32044D01*
G01X9611Y32097D01*
G01X9560Y32202D01*
G01X9560Y32306D01*
G01X9611Y32410D01*
G01X9664Y32461D01*
G01X9819Y32512D01*
G01X10287Y32512D01*
G01X9923Y32512D02*
G01X9560Y33083D01*
G01X9164Y32252D02*
G01X9164Y32202D01*
G01X9113Y32097D01*
G01X9060Y32044D01*
G01X8956Y31993D01*
G01X8750Y31993D01*
G01X8646Y32044D01*
G01X8592Y32097D01*
G01X8542Y32202D01*
G01X8542Y32306D01*
G01X8592Y32410D01*
G01X8696Y32565D01*
G01X9217Y33083D01*
G01X8488Y33083D01*
G01X5323Y7251D02*
G01X6154Y7251D01*
G01X6311Y7198D01*
G01X6362Y7147D01*
G01X6413Y7043D01*
G01X6413Y6939D01*
G01X6362Y6835D01*
G01X6311Y6781D01*
G01X6154Y6731D01*
G01X6050Y6731D01*
G01X5532Y7594D02*
G01X5478Y7696D01*
G01X5323Y7853D01*
G01X6413Y7853D01*
G01X68961Y9789D02*
G01X68961Y8699D01*
G01X68961Y9789D02*
G01X69428Y9789D01*
G01X69583Y9738D01*
G01X69636Y9685D01*
G01X69687Y9580D01*
G01X69687Y9425D01*
G01X69636Y9321D01*
G01X69583Y9271D01*
G01X69428Y9217D01*
G01X68961Y9217D01*
G01X70083Y9530D02*
G01X70083Y9580D01*
G01X70134Y9685D01*
G01X70187Y9738D01*
G01X70291Y9789D01*
G01X70497Y9789D01*
G01X70601Y9738D01*
G01X70655Y9685D01*
G01X70705Y9580D01*
G01X70705Y9476D01*
G01X70655Y9372D01*
G01X70551Y9217D01*
G01X70030Y8699D01*
G01X70759Y8699D01*
G01X23749Y48651D02*
G01X23749Y47871D01*
G01X23799Y47716D01*
G01X23903Y47612D01*
G01X24061Y47561D01*
G01X24165Y47561D01*
G01X24320Y47612D01*
G01X24424Y47716D01*
G01X24475Y47871D01*
G01X24475Y48651D01*
G01X24871Y48392D02*
G01X24871Y48442D01*
G01X24922Y48547D01*
G01X24975Y48600D01*
G01X25079Y48651D01*
G01X25285Y48651D01*
G01X25389Y48600D01*
G01X25443Y48547D01*
G01X25493Y48442D01*
G01X25493Y48338D01*
G01X25443Y48234D01*
G01X25339Y48079D01*
G01X24818Y47561D01*
G01X25547Y47561D01*
G01X5979Y18415D02*
G01X4889Y18415D01*
G01X5979Y18415D02*
G01X5979Y18051D01*
G01X5928Y17894D01*
G01X5824Y17792D01*
G01X5720Y17739D01*
G01X5562Y17688D01*
G01X5303Y17688D01*
G01X5148Y17739D01*
G01X5044Y17792D01*
G01X4940Y17894D01*
G01X4889Y18051D01*
G01X4889Y18415D01*
G01X5770Y17345D02*
G01X5824Y17241D01*
G01X5979Y17084D01*
G01X4889Y17084D01*
G01X63119Y43825D02*
G01X63119Y43045D01*
G01X63169Y42890D01*
G01X63273Y42786D01*
G01X63431Y42735D01*
G01X63535Y42735D01*
G01X63690Y42786D01*
G01X63794Y42890D01*
G01X63845Y43045D01*
G01X63845Y43825D01*
G01X64188Y43616D02*
G01X64292Y43670D01*
G01X64449Y43825D01*
G01X64449Y42735D01*
G01X68834Y43825D02*
G01X68834Y42735D01*
G01X68834Y43825D02*
G01X69301Y43825D01*
G01X69456Y43774D01*
G01X69509Y43721D01*
G01X69560Y43616D01*
G01X69560Y43461D01*
G01X69509Y43357D01*
G01X69456Y43307D01*
G01X69301Y43253D01*
G01X68834Y43253D01*
G01X69903Y43616D02*
G01X70007Y43670D01*
G01X70164Y43825D01*
G01X70164Y42735D01*
G01X21341Y17889D02*
G01X21445Y17942D01*
G01X21549Y18046D01*
G01X21600Y18148D01*
G01X21600Y18356D01*
G01X21549Y18460D01*
G01X21445Y18564D01*
G01X21341Y18618D01*
G01X21183Y18669D01*
G01X20924Y18669D01*
G01X20769Y18618D01*
G01X20665Y18564D01*
G01X20561Y18460D01*
G01X20510Y18356D01*
G01X20510Y18148D01*
G01X20561Y18046D01*
G01X20665Y17942D01*
G01X20769Y17889D01*
G01X21600Y17442D02*
G01X21600Y16870D01*
G01X21183Y17183D01*
G01X21183Y17028D01*
G01X21132Y16924D01*
G01X21082Y16870D01*
G01X20924Y16819D01*
G01X20820Y16819D01*
G01X20665Y16870D01*
G01X20561Y16974D01*
G01X20510Y17132D01*
G01X20510Y17287D01*
G01X20561Y17442D01*
G01X20612Y17495D01*
G01X20716Y17546D01*
G01X28846Y22103D02*
G01X28793Y22207D01*
G01X28689Y22311D01*
G01X28587Y22362D01*
G01X28379Y22362D01*
G01X28275Y22311D01*
G01X28171Y22207D01*
G01X28117Y22103D01*
G01X28067Y21945D01*
G01X28067Y21686D01*
G01X28117Y21531D01*
G01X28171Y21427D01*
G01X28275Y21323D01*
G01X28379Y21272D01*
G01X28587Y21272D01*
G01X28689Y21323D01*
G01X28793Y21427D01*
G01X28846Y21531D01*
G01X29707Y22362D02*
G01X29189Y21635D01*
G01X29969Y21635D01*
G01X29707Y22362D02*
G01X29707Y21272D01*
G54D34*
G01X29753Y16545D02*
G01X29753Y15712D01*
G01X29337Y16129D02*
G01X30167Y16129D01*
G54D41*
G01X52842Y18796D02*
G01X51752Y18069D01*
G01X52842Y18069D02*
G01X51752Y18796D01*
G01X52633Y17726D02*
G01X52687Y17622D01*
G01X52842Y17465D01*
G01X51752Y17465D01*
G01X42931Y20049D02*
G01X43035Y20100D01*
G01X43139Y20204D01*
G01X43190Y20308D01*
G01X43190Y20517D01*
G01X43139Y20621D01*
G01X43035Y20722D01*
G01X42931Y20776D01*
G01X42773Y20826D01*
G01X42514Y20826D01*
G01X42359Y20776D01*
G01X42255Y20722D01*
G01X42151Y20621D01*
G01X42100Y20517D01*
G01X42100Y20308D01*
G01X42151Y20204D01*
G01X42255Y20100D01*
G01X42359Y20049D01*
G01X42981Y19706D02*
G01X43035Y19602D01*
G01X43190Y19445D01*
G01X42100Y19445D01*
G01X42931Y13953D02*
G01X43035Y14004D01*
G01X43139Y14108D01*
G01X43190Y14212D01*
G01X43190Y14421D01*
G01X43139Y14525D01*
G01X43035Y14626D01*
G01X42931Y14680D01*
G01X42773Y14730D01*
G01X42514Y14730D01*
G01X42359Y14680D01*
G01X42255Y14626D01*
G01X42151Y14525D01*
G01X42100Y14421D01*
G01X42100Y14212D01*
G01X42151Y14108D01*
G01X42255Y14004D01*
G01X42359Y13953D01*
G01X42931Y13557D02*
G01X42981Y13557D01*
G01X43086Y13506D01*
G01X43139Y13453D01*
G01X43190Y13349D01*
G01X43190Y13140D01*
G01X43139Y13039D01*
G01X43086Y12986D01*
G01X42981Y12935D01*
G01X42877Y12935D01*
G01X42773Y12986D01*
G01X42618Y13090D01*
G01X42100Y13610D01*
G01X42100Y12881D01*
G01X51054Y39507D02*
G01X51054Y38417D01*
G01X51054Y39507D02*
G01X51522Y39507D01*
G01X51676Y39456D01*
G01X51730Y39403D01*
G01X51781Y39298D01*
G01X51781Y39194D01*
G01X51730Y39090D01*
G01X51676Y39039D01*
G01X51522Y38989D01*
G01X51054Y38989D01*
G01X51417Y38989D02*
G01X51781Y38417D01*
G01X52124Y39298D02*
G01X52228Y39352D01*
G01X52383Y39507D01*
G01X52383Y38417D01*
G01X47498Y8392D02*
G01X47498Y7302D01*
G01X48620Y8133D02*
G01X48567Y8237D01*
G01X48463Y8341D01*
G01X48361Y8392D01*
G01X48153Y8392D01*
G01X48049Y8341D01*
G01X47945Y8237D01*
G01X47891Y8133D01*
G01X47840Y7975D01*
G01X47840Y7716D01*
G01X47891Y7561D01*
G01X47945Y7457D01*
G01X48049Y7353D01*
G01X48153Y7302D01*
G01X48361Y7302D01*
G01X48463Y7353D01*
G01X48567Y7457D01*
G01X48620Y7561D01*
G01X49690Y8237D02*
G01X49585Y8341D01*
G01X49430Y8392D01*
G01X49222Y8392D01*
G01X49067Y8341D01*
G01X48963Y8237D01*
G01X48963Y8133D01*
G01X49014Y8028D01*
G01X49067Y7975D01*
G01X49171Y7924D01*
G01X49481Y7820D01*
G01X49585Y7769D01*
G01X49639Y7716D01*
G01X49690Y7612D01*
G01X49690Y7457D01*
G01X49585Y7353D01*
G01X49430Y7302D01*
G01X49222Y7302D01*
G01X49067Y7353D01*
G01X48963Y7457D01*
G01X50032Y8392D02*
G01X50032Y7302D01*
G01X50032Y8392D02*
G01X50500Y8392D01*
G01X50657Y8341D01*
G01X50708Y8288D01*
G01X50761Y8183D01*
G01X50761Y8028D01*
G01X50708Y7924D01*
G01X50657Y7874D01*
G01X50500Y7820D01*
G01X50032Y7820D01*
G54D36*
G75*
G01X6477Y42926D02*
G03X6477Y40386I-2540J-1270D01*
G01*
G54D38*
G75*
G01X56017Y42705D02*
G03X56020Y42705I1J-150D01*
G01*
G54D36*
G75*
G01X59182Y42466D02*
G03X60452Y42466I635J0D01*
G01*
G54D39*
G75*
G01X58166Y41765D02*
G03X58171Y41765I3J-300D01*
G01*
G54D36*
G75*
G01X51395Y15292D02*
G02X46396Y15291I-2500J7D01*
G01*
G75*
G01X46395Y21792D02*
G02X51394Y21793I2500J-7D01*
G01*
G75*
G01X50695Y15342D02*
G02X47094Y15542I-1800J107D01*
G01*
G75*
G01X47095Y21742D02*
G02X50696Y21742I1800J0D01*
G01*
G75*
G01X47538Y42275D02*
G02X47738Y42475I200J0D01*
G01*
G75*
G01X47538Y40275D02*
G03X47738Y40075I200J0D01*
G01*
G75*
G01X52538Y42275D02*
G03X52338Y42475I-200J0D01*
G01*
G75*
G01X52538Y40275D02*
G02X52338Y40075I-200J0D01*
G01*
G75*
G01X6437Y41656D02*
G03X6437Y41656I-2500J0D01*
G01*
G75*
G01X25552Y43688D02*
G03X25552Y43688I-1803J0D01*
G01*
G75*
G01X20112Y18669D02*
G03X20112Y18669I-4999J0D01*
G01*
G75*
G01X31369Y17653D02*
G03X31369Y17653I-3302J0D01*
G01*
G75*
G01X4064Y50927D02*
G03X4064Y50927I-1778J0D01*
G01*
G75*
G01X3937Y2159D02*
G03X3937Y2159I-1778J0D01*
G01*
G75*
G01X75692Y2159D02*
G03X75692Y2159I-1778J0D01*
G01*
G75*
G01X75819Y51054D02*
G03X75819Y51054I-1524J0D01*
G01*

%LPD*%
G36*
G01X19939Y17399D02*
G01X10287Y17399D01*
G01X11049Y15621D01*
G01X12573Y14351D01*
G01X14097Y13843D01*
G01X15621Y13589D01*
G01X16637Y13843D01*
G01X18669Y15113D01*
G01X19431Y16129D01*
G01X19939Y17399D01*
G37*
M00*
M02*
