G04 Layer: BottomLayer*
G04 EasyEDA v6.4.7, 2020-09-27T19:17:12+06:30*
G04 5f9934904fa34247908da0985e5d9101,0cefe5c53dde44a4b7081b089a27013d,10*
G04 Gerber Generator version 0.2*
G04 Scale: 100 percent, Rotated: No, Reflected: No *
G04 Dimensions in millimeters *
G04 leading zeros omitted , absolute positions ,3 integer and 3 decimal *
%FSLAX33Y33*%
%MOMM*%
G90*
D02*

%ADD10C,0.381000*%
%ADD13C,0.762000*%
%ADD15C,0.609600*%
%ADD17C,1.524000*%
%ADD18R,1.574800X1.574800*%
%ADD19C,1.574800*%
%ADD20C,1.799996*%
%ADD21R,1.799996X1.799996*%
%ADD22C,2.999994*%
%ADD23C,1.599997*%
%ADD24C,1.879600*%
%ADD25R,2.199996X2.199996*%
%ADD26C,2.199996*%
%ADD27R,3.657600X2.032000*%
%ADD28R,2.032000X3.657600*%
%ADD29R,1.516380X2.730500*%
%ADD30C,1.549400*%
%ADD31R,1.499997X1.499997*%
%ADD32C,1.499997*%
%ADD33C,1.193800*%

%LPD*%
G54D10*
G01X51308Y2921D02*
G01X63754Y2921D01*
G01X66294Y5461D01*
G01X66294Y28956D01*
G01X65532Y29718D01*
G01X62357Y29718D01*
G01X61341Y30734D01*
G01X61341Y39624D01*
G01X57785Y43180D01*
G01X53848Y43180D01*
G01X56515Y4191D02*
G01X58547Y6223D01*
G01X58547Y12573D01*
G01X59944Y13970D01*
G01X59944Y19431D01*
G01X61468Y20955D01*
G01X63816Y20955D01*
G01X62103Y3810D02*
G01X62103Y15113D01*
G01X62865Y15875D01*
G01X63816Y15875D01*
G01X59690Y3810D02*
G01X59690Y6477D01*
G01X61341Y8128D01*
G01X61341Y17399D01*
G01X62357Y18415D01*
G01X63816Y18415D01*
G54D13*
G01X72390Y14224D02*
G01X74676Y14224D01*
G01X74676Y14151D01*
G01X72390Y16764D02*
G01X74676Y16764D01*
G01X74676Y16579D01*
G01X72390Y19304D02*
G01X74676Y19304D01*
G01X74676Y19260D01*
G01X72390Y21844D02*
G01X74676Y21844D01*
G01X74676Y21870D01*
G01X72390Y24384D02*
G01X74676Y24378D01*
G01X72263Y28448D02*
G01X74676Y28448D01*
G01X74676Y28392D01*
G01X72263Y30988D02*
G01X74676Y30988D01*
G01X74676Y31084D01*
G01X72263Y33528D02*
G01X74676Y33528D01*
G01X74676Y33451D01*
G01X72263Y36068D02*
G01X74676Y36093D01*
G01X72263Y38608D02*
G01X74676Y38615D01*
G01X72263Y41148D02*
G01X74676Y41148D01*
G01X74676Y11684D01*
G01X72390Y11684D01*
G01X37719Y26035D02*
G01X35941Y26035D01*
G01X35941Y25901D01*
G01X37719Y28575D02*
G01X35941Y28575D01*
G01X35941Y28644D01*
G01X37719Y31115D02*
G01X35941Y31115D01*
G01X35941Y31158D01*
G01X37719Y33655D02*
G01X35941Y33634D01*
G01X37719Y36195D02*
G01X35941Y36195D01*
G01X35941Y36260D01*
G01X37719Y38735D02*
G01X35941Y38714D01*
G01X37719Y41275D02*
G01X35941Y41275D01*
G01X35941Y23495D01*
G01X37719Y23495D01*
G01X37719Y41275D02*
G01X37719Y43180D01*
G01X40640Y46101D01*
G01X53340Y46101D01*
G01X55245Y48006D01*
G01X55245Y50673D01*
G01X55118Y50800D01*
G01X72263Y41148D02*
G01X72263Y44577D01*
G01X70866Y45974D01*
G01X57023Y45974D01*
G01X55499Y47498D01*
G01X55499Y50419D01*
G01X55118Y50800D01*

%LPD*%
G36*
G01X37198Y25444D02*
G01X37198Y26625D01*
G01X36647Y26416D01*
G01X36647Y25654D01*
G01X37198Y25444D01*
G37*

%LPD*%
G36*
G01X37198Y27984D02*
G01X37198Y29165D01*
G01X36647Y28956D01*
G01X36647Y28194D01*
G01X37198Y27984D01*
G37*

%LPD*%
G36*
G01X37198Y30524D02*
G01X37198Y31705D01*
G01X36647Y31496D01*
G01X36647Y30734D01*
G01X37198Y30524D01*
G37*

%LPD*%
G36*
G01X37204Y33058D02*
G01X37191Y34239D01*
G01X36642Y34023D01*
G01X36651Y33261D01*
G01X37204Y33058D01*
G37*

%LPD*%
G36*
G01X37198Y35604D02*
G01X37198Y36785D01*
G01X36647Y36576D01*
G01X36647Y35814D01*
G01X37198Y35604D01*
G37*

%LPD*%
G36*
G01X37204Y38138D02*
G01X37191Y39319D01*
G01X36642Y39103D01*
G01X36651Y38341D01*
G01X37204Y38138D01*
G37*

%LPD*%
G36*
G01X37198Y40684D02*
G01X37198Y41865D01*
G01X36647Y41656D01*
G01X36647Y40894D01*
G01X37198Y40684D01*
G37*

%LPD*%
G36*
G01X38100Y42346D02*
G01X37338Y42346D01*
G01X37128Y41795D01*
G01X38309Y41795D01*
G01X38100Y42346D01*
G37*

%LPD*%
G36*
G01X73616Y24762D02*
G01X72986Y25057D01*
G01X72983Y23707D01*
G01X73614Y24000D01*
G01X73616Y24762D01*
G37*

%LPD*%
G36*
G01X73615Y22225D02*
G01X72985Y22518D01*
G01X72985Y21169D01*
G01X73615Y21463D01*
G01X73615Y22225D01*
G37*

%LPD*%
G36*
G01X73615Y19685D02*
G01X72985Y19978D01*
G01X72985Y18629D01*
G01X73615Y18923D01*
G01X73615Y19685D01*
G37*

%LPD*%
G36*
G01X73615Y17145D02*
G01X72985Y17438D01*
G01X72985Y16089D01*
G01X73615Y16383D01*
G01X73615Y17145D01*
G37*

%LPD*%
G36*
G01X73615Y14605D02*
G01X72985Y14898D01*
G01X72985Y13549D01*
G01X73615Y13843D01*
G01X73615Y14605D01*
G37*

%LPD*%
G36*
G01X73488Y41529D02*
G01X72858Y41822D01*
G01X72858Y40473D01*
G01X73488Y40767D01*
G01X73488Y41529D01*
G37*

%LPD*%
G36*
G01X72644Y42373D02*
G01X71882Y42373D01*
G01X71588Y41743D01*
G01X72937Y41743D01*
G01X72644Y42373D01*
G37*

%LPD*%
G36*
G01X73487Y38992D02*
G01X72856Y39284D01*
G01X72860Y37934D01*
G01X73489Y38230D01*
G01X73487Y38992D01*
G37*

%LPD*%
G36*
G01X73484Y36461D02*
G01X72851Y36749D01*
G01X72865Y35399D01*
G01X73492Y35699D01*
G01X73484Y36461D01*
G37*

%LPD*%
G36*
G01X73488Y33909D02*
G01X72858Y34202D01*
G01X72858Y32853D01*
G01X73488Y33147D01*
G01X73488Y33909D01*
G37*

%LPD*%
G36*
G01X73488Y31369D02*
G01X72858Y31662D01*
G01X72858Y30313D01*
G01X73488Y30607D01*
G01X73488Y31369D01*
G37*

%LPD*%
G36*
G01X55626Y48785D02*
G01X56302Y49879D01*
G01X54056Y49739D01*
G01X54864Y48738D01*
G01X55626Y48785D01*
G37*

%LPD*%
G36*
G01X55880Y48866D02*
G01X56408Y50035D01*
G01X54197Y49615D01*
G01X55118Y48721D01*
G01X55880Y48866D01*
G37*

%LPD*%
G36*
G01X63320Y20392D02*
G01X63320Y21517D01*
G01X62795Y21145D01*
G01X62795Y20764D01*
G01X63320Y20392D01*
G37*

%LPD*%
G36*
G01X63320Y17852D02*
G01X63320Y18977D01*
G01X62795Y18605D01*
G01X62795Y18224D01*
G01X63320Y17852D01*
G37*

%LPD*%
G36*
G01X63320Y15312D02*
G01X63320Y16437D01*
G01X62865Y16065D01*
G01X62865Y15684D01*
G01X63320Y15312D01*
G37*

%LPD*%
G36*
G01X52379Y3111D02*
G01X51828Y3511D01*
G01X51828Y2330D01*
G01X52379Y2730D01*
G01X52379Y3111D01*
G37*

%LPD*%
G36*
G01X54262Y43370D02*
G01X54049Y43408D01*
G01X54049Y42951D01*
G01X54262Y42989D01*
G01X54262Y43370D01*
G37*

%LPD*%
G36*
G01X56943Y4349D02*
G01X56673Y4619D01*
G01X56495Y4495D01*
G01X56819Y4171D01*
G01X56943Y4349D01*
G37*

%LPD*%
G36*
G01X62293Y4224D02*
G01X61912Y4224D01*
G01X61874Y4011D01*
G01X62331Y4011D01*
G01X62293Y4224D01*
G37*

%LPD*%
G36*
G01X59880Y4224D02*
G01X59499Y4224D01*
G01X59461Y4011D01*
G01X59918Y4011D01*
G01X59880Y4224D01*
G37*

%LPD*%
G36*
G01X36931Y22707D02*
G01X36931Y24282D01*
G01X35941Y23876D01*
G01X35941Y23114D01*
G01X36931Y22707D01*
G37*

%LPD*%
G36*
G01X74433Y12065D02*
G01X73290Y12583D01*
G01X73290Y10784D01*
G01X74433Y11303D01*
G01X74433Y12065D01*
G37*

%LPD*%
G36*
G01X74306Y28829D02*
G01X73163Y29347D01*
G01X73163Y27548D01*
G01X74306Y28067D01*
G01X74306Y28829D01*
G37*
G54D17*
G01X2286Y50927D03*
G01X74295Y51054D03*
G01X2159Y2159D03*
G01X73914Y2159D03*
G01X23749Y43688D03*
G54D18*
G01X37719Y23495D03*
G54D19*
G01X37719Y26035D03*
G01X37719Y28575D03*
G01X37719Y31115D03*
G01X37719Y33655D03*
G01X37719Y36195D03*
G01X37719Y38735D03*
G01X37719Y41275D03*
G54D20*
G01X72390Y24384D03*
G01X72390Y21844D03*
G01X72390Y19304D03*
G01X72390Y16764D03*
G01X72390Y14224D03*
G54D21*
G01X72390Y11684D03*
G54D20*
G01X72263Y41148D03*
G01X72263Y38608D03*
G01X72263Y36068D03*
G01X72263Y33528D03*
G01X72263Y30988D03*
G54D21*
G01X72263Y28448D03*
G54D22*
G01X60198Y50800D03*
G01X55118Y50800D03*
G01X50038Y50800D03*
G54D23*
G01X2667Y41656D03*
G01X5207Y41656D03*
G54D18*
G01X40386Y41275D03*
G54D19*
G01X40386Y38735D03*
G01X40386Y36195D03*
G01X40386Y33655D03*
G01X40386Y31115D03*
G01X40386Y28575D03*
G01X40386Y26035D03*
G01X40386Y23495D03*
G54D24*
G01X15367Y29718D03*
G01X2667Y29718D03*
G54D25*
G01X40005Y50800D03*
G54D26*
G01X34925Y50800D03*
G54D27*
G01X10223Y2603D03*
G01X10223Y8826D03*
G54D28*
G01X15176Y5651D03*
G54D20*
G01X69723Y24384D03*
G01X69723Y21844D03*
G01X69723Y19304D03*
G01X69723Y16764D03*
G01X69723Y14224D03*
G54D21*
G01X69723Y11684D03*
G54D29*
G01X21209Y28702D03*
G01X23749Y28702D03*
G01X26289Y28702D03*
G54D30*
G01X3225Y22580D03*
G01X3225Y13030D03*
G36*
G01X55066Y42025D02*
G01X56567Y42025D01*
G01X56567Y40524D01*
G01X55066Y40524D01*
G01X55066Y42025D01*
G37*
G54D32*
G01X55817Y38735D03*
G01X55817Y36195D03*
G01X55817Y33655D03*
G01X55817Y31115D03*
G01X55817Y28575D03*
G01X55817Y26035D03*
G01X55817Y23495D03*
G01X55817Y20955D03*
G01X55817Y18415D03*
G01X55817Y15875D03*
G01X55817Y13335D03*
G01X55817Y10795D03*
G01X55817Y8255D03*
G01X63816Y41275D03*
G01X63816Y38735D03*
G01X63816Y36195D03*
G01X63816Y33655D03*
G01X63816Y31115D03*
G01X63816Y28575D03*
G01X63816Y26035D03*
G01X63816Y23495D03*
G01X63816Y20955D03*
G01X63816Y18415D03*
G01X63816Y15875D03*
G01X63816Y13335D03*
G01X63816Y10795D03*
G01X63816Y8255D03*
G54D20*
G01X69723Y41148D03*
G01X69723Y38608D03*
G01X69723Y36068D03*
G01X69723Y33528D03*
G01X69723Y30988D03*
G54D21*
G01X69723Y28448D03*
G54D23*
G01X15113Y16129D03*
G01X15113Y21209D03*
G54D17*
G01X28067Y19177D03*
G01X28067Y16129D03*
G54D31*
G01X48895Y20980D03*
G54D32*
G01X48895Y16103D03*
G54D33*
G01X40259Y17145D03*
G01X40259Y19685D03*
G01X40259Y13589D03*
G01X40259Y11049D03*
G54D19*
G01X51308Y5461D03*
G01X51308Y2921D03*
G01X48768Y5461D03*
G01X48768Y2921D03*
G01X46228Y5461D03*
G36*
G01X45440Y3708D02*
G01X47015Y3708D01*
G01X47015Y2133D01*
G01X45440Y2133D01*
G01X45440Y3708D01*
G37*
G54D15*
G01X53848Y43180D03*
G01X56515Y4191D03*
G01X62103Y3810D03*
G01X59690Y3810D03*
M00*
M02*
