;Layer: Drill PTH
;EasyEDA v6.4.7, 2020-09-27T19:17:12+06:30
;5f9934904fa34247908da0985e5d9101,0cefe5c53dde44a4b7081b089a27013d,10
;Gerber Generator version 0.2
M48
METRIC,LZ,000.000
;Holesize 1 = 0.305 METRIC
T01C0.305
;Holesize 2 = 0.712 METRIC
T02C0.712
;Holesize 3 = 0.800 METRIC
T03C0.800
;Holesize 4 = 0.813 METRIC
T04C0.813
;Holesize 5 = 0.889 METRIC
T05C0.889
;Holesize 6 = 0.900 METRIC
T06C0.900
;Holesize 7 = 0.901 METRIC
T07C0.901
;Holesize 8 = 1.000 METRIC
T08C1.000
;Holesize 9 = 1.067 METRIC
T09C1.067
;Holesize 10 = 1.118 METRIC
T10C1.118
;Holesize 11 = 1.200 METRIC
T11C1.200
;Holesize 12 = 1.600 METRIC
T12C1.600
;Holesize 13 = 2.000 METRIC
T13C2.000
;Holesize 14 = 3.000 METRIC
T14C3.000
%
G05
G90
T01
X+053848Y+043180
X+056515Y+004191
X+062103Y+003810
X+059690Y+003810
T02
X+040259Y+017145
X+040259Y+019685
X+040259Y+013589
X+040259Y+011049
T03
X+028067Y+019177
X+028067Y+016129
T04
X+010223Y+002603
X+010223Y+008826
X+015176Y+005651
T05
X+037719Y+023495
X+037719Y+026035
X+037719Y+028575
X+037719Y+031115
X+037719Y+033655
X+037719Y+036195
X+037719Y+038735
X+037719Y+041275
X+040386Y+041275
X+040386Y+038735
X+040386Y+036195
X+040386Y+033655
X+040386Y+031115
X+040386Y+028575
X+040386Y+026035
X+040386Y+023495
X+051308Y+005461
X+051308Y+002921
X+048768Y+005461
X+048768Y+002921
X+046228Y+005461
X+046228Y+002921
T06
X+015367Y+029718
X+002667Y+029718
T07
X+055817Y+041275
X+055817Y+038735
X+055817Y+036195
X+055817Y+033655
X+055817Y+031115
X+055817Y+028575
X+055817Y+026035
X+055817Y+023495
X+055817Y+020955
X+055817Y+018415
X+055817Y+015875
X+055817Y+013335
X+055817Y+010795
X+055817Y+008255
X+063816Y+041275
X+063816Y+038735
X+063816Y+036195
X+063816Y+033655
X+063816Y+031115
X+063816Y+028575
X+063816Y+026035
X+063816Y+023495
X+063816Y+020955
X+063816Y+018415
X+063816Y+015875
X+063816Y+013335
X+063816Y+010795
X+063816Y+008255
X+048895Y+020980
X+048895Y+016103
T08
X+002667Y+041656
X+005207Y+041656
X+015113Y+016129
X+015113Y+021209
T09
X+003225Y+022580
X+003225Y+013030
T10
X+021209Y+028702
X+023749Y+028702
X+026289Y+028702
T11
X+072390Y+024384
X+072390Y+021844
X+072390Y+019304
X+072390Y+016764
X+072390Y+014224
X+072390Y+011684
X+072263Y+041148
X+072263Y+038608
X+072263Y+036068
X+072263Y+033528
X+072263Y+030988
X+072263Y+028448
X+069723Y+024384
X+069723Y+021844
X+069723Y+019304
X+069723Y+016764
X+069723Y+014224
X+069723Y+011684
X+069723Y+041148
X+069723Y+038608
X+069723Y+036068
X+069723Y+033528
X+069723Y+030988
X+069723Y+028448
T12
X+040005Y+050800
X+034925Y+050800
T13
X+060198Y+050800
X+055118Y+050800
X+050038Y+050800
T14
X+002286Y+050927
X+074295Y+051054
X+002159Y+002159
X+073914Y+002159
X+023749Y+043688
M30
