G04 Layer: BottomSilkLayer*
G04 EasyEDA v6.4.7, 2020-09-27T19:17:12+06:30*
G04 5f9934904fa34247908da0985e5d9101,0cefe5c53dde44a4b7081b089a27013d,10*
G04 Gerber Generator version 0.2*
G04 Scale: 100 percent, Rotated: No, Reflected: No *
G04 Dimensions in millimeters *
G04 leading zeros omitted , absolute positions ,3 integer and 3 decimal *
%FSLAX33Y33*%
%MOMM*%
G90*
D02*

%ADD36C,0.254000*%

%LPD*%
G54D36*
G01X12636Y12255D02*
G01X12255Y12001D01*
G01X14287Y12001D01*
G01X12255Y12001D02*
G01X12636Y11747D01*
G01X11366Y12001D02*
G01X11493Y12128D01*
G01X11620Y12001D01*
G01X11366Y12001D01*
G01X11493Y11874D01*
G01X11620Y12001D01*
G01X9588Y12255D02*
G01X9969Y12001D01*
G01X7683Y12001D01*
G01X9969Y12001D02*
G01X9588Y11747D01*
G01X15557Y12001D02*
G01X14541Y12001D01*
G01X15049Y11493D02*
G01X15049Y12509D01*
G01X7429Y12001D02*
G01X6413Y12001D01*
G75*
G01X12510Y13017D02*
G03X12510Y10986I-1016J-1016D01*
G01*
G75*
G01X12510Y13017D02*
G03X12510Y10986I-1016J-1016D01*
G01*
G75*
G01X12179Y12002D02*
G03X12179Y12002I-686J0D01*
G01*
G75*
G01X11748Y12002D02*
G03X11748Y12002I-254J0D01*
G01*
G75*
G01X15786Y12002D02*
G03X15786Y12002I-737J0D01*
G01*
G75*
G01X7658Y12002D02*
G03X7658Y12002I-737J0D01*
G01*
G75*
G01X12179Y12002D02*
G03X12179Y12002I-686J0D01*
G01*
G75*
G01X11748Y12002D02*
G03X11748Y12002I-254J0D01*
G01*
G75*
G01X15786Y12002D02*
G03X15786Y12002I-737J0D01*
G01*
G75*
G01X7658Y12002D02*
G03X7658Y12002I-737J0D01*
G01*
M00*
M02*
